<?xml version="1.0" encoding="utf-8"?>
<!-- Generator: Adobe Illustrator 24.3.0, SVG Export Plug-In . SVG Version: 6.00 Build 0)  -->
<svg version="1.1" id="Layer_1" xmlns="http://www.w3.org/2000/svg" xmlns:xlink="http://www.w3.org/1999/xlink" x="0px" y="0px"
	 viewBox="0 0 500 500" style="enable-background:new 0 0 500 500;" xml:space="preserve">
<style type="text/css">
	.st0{fill:#FFFFFF;}
	.st1{fill:#1A5632;}
	.st2{fill:#CE0E2D;}
	.st3{clip-path:url(#SVGID_2_);}
	.st4{fill:#FFFFFF;stroke:#FFFFFF;stroke-width:3.1997;stroke-miterlimit:10;}
	.st5{fill:#F1BC7C;}
	.st6{fill:#8E481F;}
</style>
<ellipse class="st0" cx="250" cy="250" rx="224.3" ry="225"/>
<g>
	<ellipse class="st0" cx="250" cy="250" rx="155" ry="155.4"/>
	<path class="st1" d="M250,406.7c-86.1,0-156.2-70.3-156.2-156.7S163.9,93.3,250,93.3S406.2,163.6,406.2,250S336.1,406.7,250,406.7z
		 M250,95.8C165.3,95.8,96.3,165,96.3,250S165.2,404.2,250,404.2c84.7,0,153.7-69.2,153.7-154.2S334.7,95.8,250,95.8z"/>
</g>
<g>
	<path class="st2" d="M465.1,250c0,119.2-96.3,215.8-215.1,215.8S34.9,369.2,34.9,250S131.2,34.2,250,34.2
		C368.8,34.2,465.1,130.8,465.1,250z M250,86.8c-89.9,0-162.7,73.1-162.7,163.2S160.1,413.2,250,413.2S412.7,340.1,412.7,250
		S339.9,86.8,250,86.8z"/>
	<path class="st1" d="M250,468.5c-120.1,0-217.8-98-217.8-218.5S129.9,31.5,250,31.5s217.8,98,217.8,218.5S370.1,468.5,250,468.5z
		 M250,36.8C132.8,36.8,37.5,132.5,37.5,250S132.8,463.2,250,463.2S462.5,367.5,462.5,250S367.2,36.8,250,36.8z M250,415.9
		c-91.2,0-165.4-74.4-165.4-165.9S158.8,84.1,250,84.1S415.4,158.5,415.4,250S341.2,415.9,250,415.9z M250,89.4
		c-88.3,0-160.1,72-160.1,160.6S161.7,410.6,250,410.6s160.1-72,160.1-160.6S338.3,89.4,250,89.4z"/>
</g>
<g>
	<g>
		<defs>
			<ellipse id="SVGID_1_" cx="250" cy="250" rx="155" ry="155.4"/>
		</defs>
		<clipPath id="SVGID_2_">
			<use xlink:href="#SVGID_1_"  style="overflow:visible;"/>
		</clipPath>
		<g class="st3">
			<g>
				<rect x="87.8" y="381.3" class="st1" width="324.9" height="13.3"/>
			</g>
			<g>
				<rect x="87.8" y="356.1" class="st1" width="324.9" height="12.2"/>
			</g>
			<g>
				<rect x="87.8" y="330.9" class="st1" width="324.9" height="11.1"/>
			</g>
			<g>
				<rect x="87.8" y="305.8" class="st1" width="324.9" height="10"/>
			</g>
			<g>
				<rect x="87.8" y="280.6" class="st1" width="324.9" height="8.9"/>
			</g>
			<g>
				<rect x="87.8" y="255.4" class="st1" width="324.9" height="7.8"/>
			</g>
			<g>
				<rect x="87.8" y="230.3" class="st1" width="324.9" height="6.8"/>
			</g>
			<g>
				<rect x="87.8" y="205.1" class="st1" width="324.9" height="5.7"/>
			</g>
			<g>
				<rect x="87.8" y="179.9" class="st1" width="324.9" height="4.6"/>
			</g>
			<g>
				<rect x="87.8" y="154.7" class="st1" width="324.9" height="3.5"/>
			</g>
			<g>
				<rect x="87.8" y="129.6" class="st1" width="324.9" height="2.4"/>
			</g>
			<g>
				<rect x="87.8" y="104.4" class="st1" width="324.9" height="1.3"/>
			</g>
		</g>
	</g>
</g>
<path class="st4" d="M370.6,283.9c0-12.3-25.4-18.7-50.5-18.7c-9.1,0-17.2,0.8-24.1,2.1c-1.9-1.3-4.2-3.2-5.3-4.8
	c5.3-0.5,10.4-3.3,13.4-7.7c1-1.5,0.7-1.7-0.7-2.6c-2.9-1.7-5.5-4.8-9.3-6.8c4.9-7.5,8-9.4,9.1-10.9c1.1-1.6,0.5-2.4-1.1-2.4
	c-0.7,0-5.6-0.5-6.6-0.9c2.4-2.4,5.4-10.2,6-16.1c0.2-2.4,0-3.6-1.7-4.7c-2.6-1.8-6.3-3.7-10.2-4.4c-1.6-2.7-1.5-6.1-0.8-10.2
	c0.9-4.6,1.1-6.2-1.5-10c-1.1-1.7-1.2-2.8-0.7-5.3c0.5-2.6,1-3.8,0.6-6.5c8.9,0.5,20.2-1.9,25.2-9.9c1.2-1.9,2.3-2.7,4.4-3.6
	c1.4-0.6,6-2.3,7.4-2.8c2.2-0.9,3.6-2.2,4.2-4.3c1.9-7.1,0.8-18.6-2.4-25.1c-1.7-3.5-4.2-4.1-8.6-4.1c-0.7-3-1.8-5.4-4.9-7.2
	c-5.3-3-13.7-2.2-22.3-0.8c-1.6,0.3-4.7,0.5-6.1,0.4c-4-0.4-9.2-0.9-13.6-1.3c-2.4-0.2-3.7-1.2-5.1-2.9
	c-9.6-11.9-21.9-12.1-39.6-5.8c-1.6,0.6-2.2,1-3.7,0.5c-2.2-0.7-3.9-0.6-5.8,0.7c-1.7,1.1-4.5,4.2-6.3,6.6
	c-8.1,1.4-21.9,6.3-28.1,11.9c-2.3,2.1-2.7,3.1-3.1,5.9c-0.5,3-0.8,12.3-0.5,15.3c0.3,2.8,0.6,4,2.1,5.6c5.7,6,11.7,8.1,16.3,7.4
	c0.7-0.1,1.1,0.5,1.3,0.9c1,2.1,2.5,4,4.5,4.9c-0.3,1.9-1.1,8.3-1.1,9.4c0,2.5,0.1,3.2,0.9,4.7c-5.2,5.6-5.3,7.5-3.3,17.4
	c-2-0.3-7.7,0.7-10.3,1.7c-1.5,0.6-2.4,1.1-3,3.3c-2,7.4-0.4,16.8,7.3,25c3.3,3.6,6.4,6.7,8.2,10.6c0.5,1.1,1.1,2.1,1.7,3.1
	c-1.1,1.5-1.2,4.1-0.6,5.9c-3.1,0.5-3.6,3.9-3.1,6c-1.6-0.6-3.5,0.4-5.7,2.4c-4.2,3.7-8.4,7.9-13.5,11.4c-0.9-0.4-1.8-0.4-3-0.2
	c-1.1,0.2-1.4,0.2-1.9-0.2c-1-0.7-2.1-0.6-3.4,0.1c-1,0.6-2.2,0.5-3.4,0.1c-1.5-0.4-3.2-1.3-4.7-0.3c-0.9,0.6-1.7,0.5-2.7,0.2
	c-3.2-1-6.3-1.6-7.5-0.2c-0.5,0.6-1,0.6-1.9,0.3c-2.6-0.8-8.4,0.5-8.4,4c0,0.1,0,0.1,0,0.2c-3.3-0.5-6-0.9-10.6-0.4
	c-4.6,0.4-7.7,3.3-7.6,7.1c-5.1,1.1-7.4,3.5-7.4,6.4c0,0.5,0.1,1,0.2,1.5c0.2,4.9,1.9,7.9,6.3,9.6c2.5,0.9,5.5,1.8,8.8,2.4
	c1.6,4.5,6.9,8.4,11.6,5.7c2.4,1.9,5.8,2.2,9.1,0.5c0.7,0.3,1.4,0.5,2.3,0.5c3.8,0.2,6.9-1.7,12-3.7c4.5,0,8.9-0.1,12.9-0.4
	c-0.2,4.9,1.1,17.1,2.2,21.2c0.4,1.6,0.9,2.2,2,2.6c2.6,1.1,4.8,2.6,7.3,5.4c5,5.6,8.9,15.2,8.9,19.3c0,4.2-3.9,5.1-3.3,11.2
	c-1.2-0.1-2.4-0.2-3.6-0.2c-11.7,0-17.7,7.2-17.7,13c0,0.5,0,1,0.2,1.5c-2.3,1.9-2.9,4.6-0.3,6.7c5,4.3,20.3,7.3,29.4,7.3
	c10.4,0,18-2.8,23.6-7.6c0.3-0.2,0.5-0.4,0.9-0.3s1.4,0.1,2.1-0.1c2.1-0.4,9.2-3.7,10.8-4.7c2.9,1,11.7,2.9,14.4,3.3
	c1,0.2,2.2,0,2.7-0.3s0.9-0.2,1.4,0.2c8.7,6.9,13.7,12.3,32.1,12.3c15.6,0,21.9-5.9,21.9-9.8c0-1.6-0.5-3.2-1.3-4.3
	c0.1-0.5,0.1-1,0.1-1.5c0-8.1-8.5-13.2-22.6-14.2c-0.1-3.3-1.9-7.3-4.2-8.6c-0.4-0.2-0.4-0.5-0.2-0.8c1.7-2.6-0.3-7.6-2.1-8.3
	c0.8-0.5,1.5-1.5,2-2.6c0.4-1,4.4-9.8,5.2-11.6c2-0.4,3.7-0.8,5-1.2c2.3-0.7,3.2-1.8,3.7-3.3c2.2-7.4,2.6-16,2.3-23.9
	c2.1,0.2,4.3,0.4,6.6,0.6c5.4,2.4,8.5,4.6,12.5,4.6c0.9,0,1.6-0.1,2.3-0.4c3.2,1.9,6.7,1.7,9.1,0c4.4,2.9,9.8-0.6,11.7-4.9
	C361.3,298.6,370.6,293.7,370.6,283.9z"/>
<g>
	<path d="M50.7,278.3l1.6,0.6l19.7-3.3l1.3-1.1l0.7,3.9l-1.6-0.6l-8.3,1.4c-0.1,0.3-0.2,0.6-0.2,0.9s0,0.7,0.1,1.1
		c0.1,0.4,0.2,0.7,0.3,1s0.3,0.6,0.5,0.8l8.3-1.4l1.3-1.1l0.6,3.9l-1.6-0.6l-19.7,3.3l-1.3,1.1l-0.7-3.9l1.6,0.6l9.8-1.6
		c-0.2-0.3-0.3-0.6-0.4-0.9c-0.1-0.3-0.2-0.6-0.2-0.9s-0.1-0.6-0.1-0.9s0-0.7,0.1-1.1l-9.8,1.6l-1.3,1.1L50.7,278.3z"/>
	<path d="M66.9,302.8c-3.6,0.9-6.4,1.3-8.5,1c-2-0.3-3.2-1.1-3.6-2.6c-0.4-1.5,0.3-2.8,1.9-4c1.7-1.2,4.3-2.3,7.9-3.3l1-0.3
		c3.6-0.9,6.4-1.3,8.5-1c2,0.3,3.2,1.1,3.6,2.6s-0.3,2.8-1.9,4c-1.7,1.2-4.3,2.3-7.9,3.3L66.9,302.8z M66.4,300.4l1-0.3
		c4.2-1.1,6.8-1.9,7.9-2.5s1.5-1.3,1.3-2.1c-0.2-0.8-0.9-1.2-2.2-1.2c-1.2,0-3.9,0.5-8.1,1.6l-1,0.3c-4.1,1.1-6.7,1.9-7.8,2.5
		s-1.5,1.3-1.3,2.1c0.2,0.8,0.9,1.2,2.1,1.2S62.2,301.5,66.4,300.4z"/>
	<path d="M79.6,308.9c-0.5,0.2-1.1,0.5-1.7,0.7s-1.4,0.6-2.5,1l-14.1,5.2l-1.1,1.3l-1.1-3.1l1.7,0.3l18.7-6.9l1.1-1.4l1.5,4.1
		l-8.2,4.1c-0.7,0.3-1.5,0.7-2.3,1.1c-0.9,0.4-1.9,0.8-3,1.2l0.1,0.3l0.4-0.1c1.4-0.5,3-1,4.9-1.4c0.1,0,0.2,0,0.3-0.1l9-2.1
		l1.5,4.1l-1.7-0.3l-18.7,6.9l-1.1,1.4l-1.3-3.6l1.7,0.3l14.2-5.2c0.8-0.3,1.5-0.5,2.2-0.8c0.7-0.2,1.4-0.4,2-0.6l-0.1-0.4
		l-20.6,4.9l-0.3-0.9l18.9-9.5L79.6,308.9z"/>
	<path d="M66.7,333.5l1.8,0.1l17.9-8.7l1-1.5l3.5,7.4l-5.5,2.6l-0.2-0.3l3.3-3.7l-1.2-2.5l-7.8,3.7l0.6,1.2l3.7,0.3l0.1,0.3
		l-6.9,3.3l-0.1-0.3l1.9-3l-0.6-1.2l-8.8,4.2l1.2,2.6l5.2-0.4L76,338l-5.8,2.8L66.7,333.5z"/>
	<path d="M93.8,359.3c-3.1,2.1-5.7,3.3-7.7,3.7c-2,0.4-3.4,0-4.3-1.3c-0.8-1.3-0.7-2.7,0.5-4.4c1.2-1.7,3.3-3.6,6.4-5.7l0.9-0.6
		c3.1-2.1,5.7-3.3,7.7-3.7c2-0.4,3.4,0,4.3,1.3c0.8,1.3,0.7,2.7-0.5,4.4c-1.2,1.7-3.3,3.6-6.4,5.6L93.8,359.3z M92.5,357.3l0.9-0.6
		c3.6-2.4,5.8-4.1,6.6-5c0.8-0.9,1-1.7,0.5-2.4c-0.5-0.7-1.3-0.8-2.4-0.4c-1.2,0.4-3.5,1.8-7.1,4.2l-0.9,0.6c-3.6,2.4-5.8,4-6.6,4.9
		c-0.8,0.9-1,1.7-0.6,2.4c0.5,0.7,1.3,0.8,2.4,0.4C86.5,361.1,88.9,359.7,92.5,357.3z"/>
	<path d="M89.7,372.2l1.8-0.3l15.6-12.4l0.6-1.6l5.1,6.5l-4.8,3.8l-0.2-0.3l2.4-4.4l-1.8-2.3l-7.1,5.6l0.8,1l4-0.8l0.2,0.2l-6.7,5.4
		l-0.2-0.2l1.6-3.7l-0.8-1l-7.3,5.8l-0.7,1.7L89.7,372.2z"/>
	<path d="M109.1,394.1l1.7-0.5l14.1-14.7l-1-1l-5.1,3.1l-0.3-0.3l4.8-5l6.5,6.2l-4.8,5l-0.3-0.3l2.9-5.2l-1-1l-14.1,14.7l-0.4,1.7
		L109.1,394.1z"/>
	<path d="M120.3,404.4l1.6-0.6l12.5-15.6l0.3-1.7l3.1,2.5l-1.6,0.6l-5.2,6.6c0.1,0.3,0.3,0.6,0.5,0.8c0.2,0.3,0.4,0.5,0.7,0.7
		s0.6,0.4,0.9,0.6c0.3,0.1,0.6,0.2,0.9,0.3l5.2-6.6l0.2-1.7l3.1,2.5l-1.6,0.6L128.3,409l-0.2,1.7l-3.1-2.5l1.6-0.6l6.2-7.7
		c-0.3-0.1-0.7-0.3-0.9-0.4c-0.3-0.1-0.5-0.3-0.8-0.5c-0.2-0.2-0.4-0.4-0.7-0.6c-0.2-0.2-0.4-0.5-0.6-0.8l-6.2,7.7l-0.2,1.7
		L120.3,404.4z"/>
	<path d="M135.2,415.8l1.6-0.8l11-16.6l0.1-1.7l6.8,4.5l-3.4,5.1l-0.3-0.2l0.9-4.9l-2.3-1.5l-4.8,7.2l1.1,0.7l3.3-1.6l0.3,0.2
		l-4.3,6.4l-0.3-0.2l0.1-3.6l-1.1-0.7l-5.4,8.2l2.4,1.6l4.3-3l0.3,0.2l-3.5,5.3L135.2,415.8z"/>
	<path d="M158.3,429.8l1.5-1l8.7-18l-0.1-1.7l7.4,3.6l-2.7,5.5l-0.3-0.2l0.3-5l-2.6-1.3l-4,8.2l1.2,0.6l3.3-2.4l0.3,0.1l-3.8,7.7
		l-0.3-0.1l-0.2-4l-1.2-0.6l-4.1,8.4l0.1,1.8L158.3,429.8z"/>
	<path d="M176.5,436.4l0.3,1.7l-3.7-1.5l1.4-1.1l7.5-18.6l-0.3-1.7l3.7,1.5l-1.4,1.1L176.5,436.4z"/>
	<path d="M197.7,422.6l-0.4-1.7l3.4,1.1l-1.3,1.2l-6.5,20.5l-0.9-0.3l0.3-14c0-0.7,0.1-1.5,0.1-2.4c0.1-0.9,0.1-1.9,0.2-3l-0.3-0.1
		c-0.1,0.6-0.3,1.2-0.5,1.8c-0.2,0.6-0.4,1.5-0.8,2.6l-3.8,12.1l0.4,1.7l-3.4-1.1l1.3-1.2l6-19.1l-0.4-1.7l3.2,1l-0.4,9.4
		c0,0.1,0,0.3,0,0.6c-0.1,1.8-0.2,3.4-0.5,4.8l0.3,0.1c0.2-0.7,0.3-1.4,0.5-2.1s0.4-1.5,0.7-2.3L197.7,422.6z"/>
	<path d="M202.3,446.2l1.2-1.3l4.3-19.5l-0.5-1.7l7.9,1.8l-1.3,6l-0.4-0.1l-0.9-4.9l-2.7-0.6l-1.9,8.4l1.3,0.3l2.5-2.7l0.3,0.1
		l-1.7,7.5l-0.3-0.1l-1.2-3.4l-1.3-0.3l-2.1,9.6l2.8,0.6l2.9-4.3l0.4,0.1l-1.4,6.3L202.3,446.2z"/>
	<path d="M219.3,449.7l-0.6-0.1l1-7.6l1,0.1c0,2.1,0.2,3.8,0.6,5.1c0.4,1.2,0.9,1.9,1.6,2c0.5,0.1,0.9-0.2,1.2-0.7
		c0.3-0.6,0.5-1.5,0.7-2.7c0.3-2.1-0.2-4-1.3-5.8c-0.1-0.1-0.1-0.2-0.2-0.3l-0.8-1.2c-0.7-1.2-1.2-2.2-1.4-3.2s-0.2-2-0.1-3.1
		c0.3-1.8,0.7-3.2,1.5-4.1c0.7-0.9,1.6-1.3,2.6-1.2c0.4,0.1,0.8,0.2,1.1,0.5s0.7,0.7,1,1.3l1-1.1h0.3l-1,6.9l-0.8-0.1
		c0-2.3-0.1-3.9-0.4-4.8c-0.3-0.9-0.7-1.4-1.4-1.5c-0.6-0.1-1,0.1-1.4,0.7c-0.4,0.5-0.6,1.3-0.8,2.4c-0.1,0.9-0.1,1.7,0,2.4
		c0.2,0.7,0.6,1.7,1.3,2.9l0.7,1.2c0.9,1.5,1.4,2.8,1.6,3.8c0.2,1,0.2,2.3,0,3.8c-0.3,1.8-0.7,3.2-1.4,4c-0.7,0.9-1.5,1.2-2.6,1.1
		c-0.5-0.1-1-0.3-1.4-0.7c-0.4-0.4-0.7-1-1-1.9L219.3,449.7z"/>
	<path d="M236.3,451.4l1-1.4l1.2-20.4l-1.4-0.1l-1.8,5.7h-0.5l0.4-6.9l8.9,0.5l-0.4,6.9h-0.5l-1.2-5.9l-1.4-0.1l-1.2,20.4l0.8,1.5
		L236.3,451.4z"/>
	<path d="M261.9,430.4c0.1,0.6,0.2,1.2,0.2,1.8c0.1,0.6,0.2,1.5,0.3,2.7l1.3,15.1l1,1.4l-3.3,0.3l0.8-1.6l-1.7-20l-1-1.4l4.3-0.4
		l1.7,9c0.1,0.8,0.3,1.6,0.4,2.5s0.2,2,0.3,3.3h0.3v-0.4c-0.1-1.5-0.1-3.2-0.1-5.2c0-0.1,0-0.2,0-0.3l0.4-9.2l4.3-0.4l-0.8,1.6
		l1.7,20l1,1.4l-3.8,0.3l0.8-1.6l-1.3-15.1c-0.1-0.8-0.1-1.6-0.1-2.3c0-0.7-0.1-1.4-0.1-2.1h-0.4l-0.8,21.3l-0.9,0.1l-4.2-20.8
		L261.9,430.4z"/>
	<path d="M282.2,449.3l0.6-1.7l-3.6-19.6l-1.1-1.3l8-1.5l1.1,6l-0.4,0.1l-2.7-4.2l-2.7,0.5l1.5,8.5l1.3-0.2l1.3-3.4l0.3-0.1l1.4,7.6
		l-0.3,0.1l-2.4-2.6l-1.3,0.2l1.8,9.6l2.8-0.5l1-5.1l0.4-0.1l1.1,6.3L282.2,449.3z"/>
	<path d="M298.7,446l0.4-1.8l0.6-10.4l-5.2-8.9l-1.3-1.3l3.6-1l-0.2,1.8l2,3.5c0.1,0.2,0.2,0.4,0.4,0.7c0.2,0.3,0.4,0.7,0.6,1.2
		l0.3-0.1c0-0.4,0-0.7,0-1.1c0-0.3,0-0.7,0-1l0.3-4.3l-1.1-1.4l3.2-0.9l-0.4,1.8l-0.6,9.6l5.7,9.5l1.2,1.3l-3.6,1l0.3-1.8l-2.7-4.6
		c-0.1-0.1-0.2-0.4-0.5-0.9c-0.2-0.3-0.3-0.6-0.4-0.8l-0.3,0.1c0,0.5,0,1,0,1.4s0,0.7,0,1l-0.2,5.1l1.1,1.4L298.7,446z"/>
	<path d="M318.5,438.3l1.3,1.1l-3.7,1.3l0.3-1.7l-6.7-18.8l-1.3-1.1l3.7-1.3l-0.3,1.7L318.5,438.3z"/>
	<path d="M329.4,435.5l0.2-1.7l-8.2-18.6l-1.3,0.6l1,5.9l-0.4,0.2l-2.8-6.3l8.2-3.6l2.8,6.3l-0.4,0.2l-3.7-4.7l-1.3,0.6l8.2,18.6
		l1.4,1L329.4,435.5z"/>
	<path d="M341.5,429.9l0.1-1.9l-6.7-19.2l-1.3-0.9l3.4-1.9v1.6l11.9,16.4l1.5,1l-3.3,1.8V425l-3.1-4.2c-0.2,0.3-0.5,0.5-0.7,0.7
		s-0.4,0.3-0.6,0.4s-0.4,0.2-0.7,0.3c-0.3,0.1-0.6,0.1-1,0.2l1.7,5l1.5,1L341.5,429.9z M340.5,420.9c0.3,0,0.6,0,0.8-0.1
		c0.2-0.1,0.5-0.1,0.7-0.2s0.4-0.3,0.6-0.4c0.2-0.2,0.3-0.4,0.5-0.7l-3.6-5c-0.2-0.3-0.5-0.8-0.9-1.3c-0.4-0.6-0.8-1.2-1.2-1.9
		l-0.3,0.1c0.3,0.6,0.5,1.2,0.8,1.8c0.2,0.6,0.4,1.2,0.6,1.8L340.5,420.9z"/>
	<path d="M360.9,416.6l-2.1-7.2l0.4-0.2l4.8,7.3l-6.4,4.2l-0.1-1.8l-10.9-16.6l-1.6-0.8l3.3-2.2l0.1,1.7l10.9,16.6L360.9,416.6z"/>
	<path d="M371.8,408.8l1.6,0.7l-3.2,2.4l-0.2-1.7l-12-16l-1.6-0.7l3.2-2.4l0.2,1.7L371.8,408.8z"/>
	<path d="M379.5,404.6l-0.3-1.8l-10.9-17.2l-1.4-0.6l2.9-2.6l0.3,1.5l15.2,13.3l1.7,0.6l-2.8,2.5l-0.4-1.8l-3.9-3.4
		c-0.2,0.3-0.3,0.6-0.5,0.9c-0.2,0.2-0.3,0.4-0.5,0.5c-0.2,0.2-0.4,0.3-0.6,0.4s-0.5,0.3-0.9,0.4l2.8,4.4l1.7,0.6L379.5,404.6z
		 M376.6,396c0.3-0.1,0.6-0.1,0.8-0.3c0.2-0.1,0.4-0.2,0.6-0.4c0.2-0.2,0.3-0.4,0.5-0.6c0.1-0.2,0.2-0.5,0.3-0.7l-4.7-4.1
		c-0.3-0.3-0.7-0.6-1.2-1.1s-1-1-1.6-1.6l-0.2,0.2c0.4,0.5,0.8,1.1,1.1,1.6c0.4,0.5,0.7,1.1,1,1.6L376.6,396z"/>
	<path d="M382.6,371.8l-1.7-0.4l2.4-2.6l0.5,1.7l15.6,14.7l-0.6,0.7l-12.5-6.3c-0.6-0.3-1.3-0.7-2.1-1.1c-0.7-0.4-1.6-0.9-2.6-1.5
		l-0.2,0.2c0.5,0.4,0.9,0.8,1.4,1.2c0.5,0.4,1.1,1,2,1.8l9.2,8.7l1.7,0.4l-2.4,2.6l-0.5-1.7l-14.6-13.7l-1.7-0.4l2.3-2.5l8.3,4.4
		c0.1,0.1,0.3,0.1,0.5,0.3c1.6,0.9,3,1.7,4.1,2.5l0.2-0.2c-0.5-0.4-1.1-0.9-1.6-1.4c-0.6-0.5-1.1-1-1.7-1.6L382.6,371.8z"/>
	<path d="M397.5,350.3l0.3-0.5l6,4.3l-0.5,0.7c-1.9-1.1-3.4-1.8-4.4-2s-1.7,0-2.2,0.6c-0.5,0.7-0.3,1.5,0.5,2.4s2.9,2.6,6.5,5.1
		l0.8,0.6c3.4,2.4,5.6,3.8,6.9,4.3c1.2,0.5,2.1,0.4,2.5-0.2s0.3-1.3-0.4-2.2c-0.7-0.9-1.8-1.9-3.5-3.1c-0.1,0-0.3-0.2-0.6-0.4
		c-0.4-0.2-0.7-0.4-0.9-0.6l0.9-1.3c0.5,0.3,1,0.6,1.3,0.8c0.4,0.2,0.7,0.4,1,0.6c1.6,1.2,2.7,2.4,3.3,3.6c0.6,1.3,0.6,2.3,0,3.2
		c-0.9,1.2-2.3,1.6-4.3,1.1s-4.5-1.8-7.6-4l-0.9-0.6c-3.1-2.2-5.2-4.1-6.3-5.9c-1.1-1.7-1.2-3.2-0.3-4.5c0.3-0.4,0.7-0.7,1.1-0.9
		c0.4-0.1,1-0.2,1.7-0.1L397.5,350.3z"/>
	<path d="M406.4,339.1h-1.7l1.8-3.1l0.9,1.5l13.3,7.8c2.1,1.2,3.4,2.3,3.9,3.3s0.4,2.1-0.3,3.3c-0.4,0.6-0.8,1.1-1.3,1.4
		s-1.1,0.5-1.7,0.5c-0.5,0-0.9-0.1-1.5-0.2c-0.5-0.2-1.2-0.5-2-1l-1.2-0.7l-13.3-7.8h-1.7l2-3.4l0.9,1.5l14.4,8.4
		c1.2,0.7,2.1,1.1,2.7,1.1c0.5,0,1-0.3,1.3-0.9c0.4-0.6,0.4-1.2,0.1-1.7s-1-1.1-2.2-1.8L406.4,339.1z"/>
	<path d="M429.9,337.1l1.7-0.1l-1.7,3.6l-0.9-1.5l-17.9-8.8l-1.7,0.1l1.7-3.6l1,1.5L429.9,337.1z"/>
	<path d="M435.2,329.4L435,330l-7.1-2.9l0.4-1c2.1,0.5,3.7,0.8,5,0.7c1.3-0.1,2.1-0.4,2.3-1c0.2-0.5,0.1-0.9-0.4-1.3
		s-1.3-0.9-2.4-1.4c-1.9-0.8-3.9-0.9-6-0.2c-0.1,0-0.2,0.1-0.3,0.1l-1.3,0.4c-1.3,0.4-2.5,0.6-3.4,0.6c-1,0-2-0.3-3.1-0.7
		c-1.7-0.7-2.9-1.5-3.6-2.5c-0.7-0.9-0.9-1.9-0.5-2.9c0.2-0.4,0.4-0.7,0.8-1c0.4-0.2,0.9-0.4,1.5-0.6l-0.8-1.2l0.1-0.3l6.4,2.6
		l-0.3,0.8c-2.2-0.6-3.8-0.9-4.7-0.8c-0.9,0-1.5,0.4-1.8,1c-0.2,0.5-0.1,1,0.3,1.5s1.1,0.9,2.1,1.3c0.8,0.3,1.6,0.5,2.4,0.6
		c0.7,0,1.8-0.2,3.2-0.6l1.4-0.4c1.7-0.5,3-0.7,4.1-0.6s2.3,0.4,3.6,1c1.7,0.7,2.9,1.5,3.6,2.3c0.7,0.9,0.8,1.8,0.4,2.8
		c-0.2,0.5-0.5,0.9-1,1.1c-0.5,0.3-1.2,0.4-2.1,0.5L435.2,329.4z"/>
	<path d="M439.7,312.9l1.7-0.4l-1.3,3.8L439,315l-18.9-6.4l-1.7,0.4l1.3-3.8l1.1,1.3L439.7,312.9z"/>
	<path d="M424.8,292.4l-1.7,0.5l0.9-3.4l1.2,1.2L446,296l-0.2,0.9l-13.9,0.6c-0.7,0-1.5,0-2.4,0s-1.9,0-3-0.1l-0.1,0.3
		c0.6,0.1,1.2,0.2,1.8,0.4c0.6,0.1,1.5,0.3,2.6,0.6l12.2,3.1l1.7-0.5l-0.9,3.4l-1.2-1.2l-19.3-4.9l-1.7,0.5l0.8-3.3l9.4-0.2
		c0.1,0,0.3,0,0.6,0c1.8,0,3.4,0,4.8,0.2l0.1-0.3c-0.7-0.1-1.4-0.3-2.1-0.4c-0.7-0.2-1.5-0.3-2.3-0.5L424.8,292.4z"/>
	<path d="M448,286.5l-1.4-1.1l-19.6-3.2l-1.6,0.6l1.3-8.1l6,1l-0.1,0.4l-4.8,1.2l-0.4,2.7l8.5,1.4l0.2-1.3l-2.8-2.4v-0.3l7.6,1.2
		v0.3l-3.3,1.4l-0.2,1.3l9.6,1.6l0.5-2.8l-4.5-2.7l0.1-0.4l6.3,1L448,286.5z"/>
</g>
<g>
	<path d="M52.6,181.8c-0.7,1.5-1.7,3.6-2.9,6.2l-0.9,2l4.6,1.7l3-3.9c0.8,0.4,1.8,0.8,2.9,1.3l17.8,8.2c1.3,0.6,2.5,1.2,3.5,1.7
		l-1.1,5.2l4.6,1.5l0.7-1.6c1.1-2.6,2.1-4.7,2.8-6.3c0.7-1.6,1.6-3.5,2.7-5.7l0.9-2l-4.5-1.7l-2.7,3.3c-1-0.4-2.2-1-3.6-1.6
		l-10.1-4.7l23.6-0.8l1.8-4.9l-15.1-19.2l11,5.1c1.4,0.6,2.6,1.2,3.6,1.7l-0.9,4.6l4.6,1.5l0.7-1.7c0.9-2.1,2.1-4.8,3.5-7.9
		c1.5-3.2,2.8-6.2,4.1-8.8l1-2l-4.6-1.6l-2.9,3.8c-1-0.4-2.2-1-3.5-1.6l-17.8-8.2c-1.1-0.5-2-1-2.8-1.3l1.1-5.3l-4.7-1.4l-0.7,1.6
		c-1.1,2.5-2,4.7-2.9,6.5c-0.6,1.3-1.2,2.7-1.9,4.1l-0.2,0.4c-0.4,0.8-0.7,1.5-1.1,2.3l-0.5,1.1l15.2,19.2l-24.3,0.7l-0.5,1.2
		c-0.9,2.2-1.9,4.4-2.9,6.5c-0.1,0.1-0.1,0.3-0.2,0.4L52.6,181.8z"/>
	<g>
		<path d="M137.6,115.1c-0.7-0.8-1.7-1.9-3-3.4l-6-6.9c0.5-0.8,1-1.2,1.3-1.5c0.4-0.3,0.5-0.3,0.7-0.2c0.8,0.3,1.9,0.8,3.2,1.6
			l1.4,0.9l3.2-3.7l-0.7-1.2c-1.5-2.6-2.8-5.1-4-7.5l-0.7-1l-1.9-0.2l-0.7,0.6c-2.4,2.1-4.4,4.6-6,7.5l-0.6-0.7l-2.3,0.7l-0.4,0.5
			c-2.5,3.1-5.3,6.4-8.5,9.9l-1.4,1.6l3.5,2.8l3.7-2.1c0.7,0.8,1.7,1.9,2.8,3.1l5.4,6.2c0.5,0.6,0.9,1.1,1.3,1.5l-2.1,2.8l-0.9-0.5
			l-1.1,1.3c-0.8,0.9-1.2,1.4-1.5,1.6c-0.2,0.2-0.3,0.2-0.3,0.2c-0.2-0.1-0.6-0.4-1.3-1l-7.8-6.6c-2.4-2-5.1-2.6-7.9-1.9
			c-2.6,0.7-5.2,2.6-7.8,5.9c-2.7,3.3-4.8,7.3-6.4,11.9l-0.7,2l5.7,1.6l0.7-1.5c1.2-2.6,2.5-4.7,3.7-6.2c1.4-1.8,2.4-2.3,3-2.4
			c0.4-0.1,1.1-0.1,2.2,0.8c-3.2,4.2-5.3,7.7-6.2,10.7c-1.5,4.9,0.4,7.7,2.2,9.2c1.4,1.1,3,1.7,4.6,1.7c0.9,0,1.8-0.2,2.7-0.5
			c2.4-0.8,4.6-2.5,6.7-5c1.7-2.1,2.8-4.6,3.4-7.3c1.6-0.2,3.5-1.1,5.3-3.4c1.3-1.6,2.6-3.8,3.8-6.4l0.5,0.5l1.3-1.2
			c2.2-2,4.4-3.9,6.6-5.9c2.3-2,4.8-4.1,7.4-6.3l1.7-1.4l-3.4-3.4L137.6,115.1z M109.2,140.7c-0.7-0.6-0.8-1.1-0.6-1.7
			c0.2-0.6,0.6-1.8,2-3.6l3.1,2.6c-0.2,0.6-0.6,1.1-1.1,1.7c-0.6,0.7-1.3,1.2-2,1.5C110.4,141.2,110,141.4,109.2,140.7z"/>
		<path d="M159.9,99.2c-0.4-0.6-1-1.5-1.7-2.6l-5.1-7.8c-1.4-2.1-2.6-4.2-3.7-6.1l-0.6-1.1l-2.3,0.1l-0.5,0.5
			c-2.8,2.6-6.2,5.6-10,8.8l-1.6,1.4l3.1,3.3l4-1.6c0.8,1.1,1.6,2.3,2.4,3.6l4.3,6.6c0.5,0.8,0.9,1.4,1.2,1.9l-3.5,3.6l3.1,3.6
			l1.5-1c2.5-1.7,5-3.3,7.5-5c2.5-1.6,5-3.3,7.6-4.9l1.8-1.2l-3-3.8L159.9,99.2z"/>
		<path d="M137.5,85.6c0.2,0,0.3,0,0.5,0c1.4,0,2.8-0.4,4.1-1.3c1.6-1,2.7-2.3,3.2-3.9c0.6-1.7,0.4-3.3-0.6-4.8s-2.4-2.3-4.1-2.4
			c-1.5-0.1-3,0.4-4.5,1.4c-1.6,1-2.7,2.3-3.2,3.8c-0.6,1.7-0.4,3.3,0.5,4.9C134.3,84.6,135.7,85.5,137.5,85.6z"/>
		<path d="M191.5,74.7c-1.7-3.8-4.7-6.2-8.8-7.1c-3.9-0.8-8.3-0.2-13.2,2c-5.1,2.3-8.7,5.4-10.7,9.1c-2.1,3.9-2.3,7.9-0.6,11.7
			c1.7,3.8,4.7,6.2,8.8,7.2c1.2,0.3,2.4,0.4,3.6,0.4c3,0,6.2-0.8,9.6-2.3c4.9-2.2,8.5-5.3,10.6-9C193.1,82.8,193.3,78.7,191.5,74.7
			L191.5,74.7z M174.2,89.6c-1.5-1-2.8-2.8-3.8-5.1l0,0c-1.1-2.5-1.6-4.5-1.3-6c0.1-0.8,0.6-1.9,2.5-2.8c0.8-0.4,1.5-0.5,2.1-0.5
			c0.9,0,1.5,0.3,1.9,0.6c1.4,0.9,2.7,2.6,3.8,5c1.2,2.6,1.6,4.7,1.4,6.2c-0.1,0.8-0.5,2-2.5,2.8C176.7,90.5,175.4,90.5,174.2,89.6z
			"/>
		<path d="M195.5,47.8c-1.5-0.8-3.2-0.9-4.9-0.4c-1.6,0.5-2.8,1.3-3.7,2.4c-1,1.3-1.2,2.9-0.7,4.5l0.4,1.3l1.4,0.1
			c2.3,0.2,2.6,1.1,2.7,1.4c0.3,1.1-0.5,2.9-2.2,5.1l-1.6,1.9l5.2,2.7l1-1.1c2.2-2.4,3.8-4.8,4.8-7c1.1-2.5,1.3-4.9,0.7-7.1
			C198.1,49.9,197,48.6,195.5,47.8z"/>
		<path d="M225.6,66.8c-0.8-0.5-1.8-0.8-2.8-1.1l2.1-0.7v-1.4c0.1-1.9,0.2-4,0.4-6.2l0.2-2l-2-0.2c-3-0.3-6.3-0.1-9.8,0.6
			c-4.4,0.9-7.7,2.2-10.1,4.2c-3.3,2.8-3.5,5.9-3.1,8s1.6,3.8,3.5,4.9c0.5,0.3,1.1,0.6,1.7,0.8l-2,0.7v1.4c0,2-0.2,4.2-0.4,6.4
			l-0.2,1.9l1.9,0.3c1.5,0.2,3.1,0.3,4.6,0.3c2.1,0,4.3-0.2,6.4-0.6c4.3-0.9,7.8-2.3,10.3-4.3c3.6-2.9,3.8-6,3.4-8.2
			C228.9,69.7,227.6,68,225.6,66.8z M217.4,61.8l2.1,3.2c-0.5-0.1-1-0.1-1.5-0.2l-5.1-0.4c-1.4-0.1-1.9-0.3-2.1-0.5
			c0-0.2,0.3-0.5,0.5-0.5c0.8-0.6,2-1,3.5-1.3C215.7,62,216.6,61.9,217.4,61.8z M217.6,76.7c-0.7,0.5-1.8,1-3.2,1.2
			c-1.2,0.2-2.3,0.4-3.2,0.4l-2.4-3.7c0.5,0.1,1.1,0.1,1.7,0.2l3.8,0.3c2.4,0.2,3.2,0.5,3.4,0.6c0.3,0.1,0.3,0.3,0.3,0.4
			C218,76.2,218.1,76.3,217.6,76.7z"/>
		<path d="M286.5,54.9c0.3-3.7-1.3-6.8-4.6-9c-3-2-7.4-3.2-13.3-3.6c-1.5-0.1-3.2-0.2-5-0.3s-3.6-0.2-5.5-0.4
			c-2.8-0.2-5.6-0.5-8.4-0.8l-2.2-0.2v4.9l4.7,1.5c0,0.3,0,0.6-0.1,0.9c0,0.7-0.1,1.4-0.2,2.2l-1.6,19.6c-0.1,1-0.2,1.9-0.2,2.7
			c0,0.4-0.1,0.8-0.1,1.2l-5.3,0.7l0.2,4.8l1.8,0.1c2.8,0.2,6,0.4,9.5,0.7c3.4,0.3,6.7,0.6,9.9,0.9l2.2,0.2v-4.9l-5.1-1.6
			c0-0.4,0-0.7,0.1-1.1c0.1-0.8,0.1-1.6,0.2-2.6l0.4-4.5c0.9,0.1,1.9,0.2,2.7,0.3c5.7,0.5,10.4-0.3,13.9-2.2
			C284.1,62.3,286.1,59.1,286.5,54.9z M272.5,54.7c-0.2,2.1-0.8,3.6-1.8,4.4c-1.1,0.9-2.7,1.2-4.9,1c-0.5,0-1-0.1-1.5-0.2l0.9-11.6
			c0.5,0,0.9,0,1.4,0.1c2.3,0.2,3.9,0.8,4.8,1.8S272.6,52.7,272.5,54.7z"/>
		<path d="M299.3,58.3c0.8,0.2,1.6,0.3,2.3,0.3c1,0,1.9-0.2,2.7-0.5c1.6-0.7,2.7-2,3.2-3.7c0.4-1.7,0.1-3.3-1-4.6
			c-0.9-1.1-2.3-1.9-4-2.4c-1.8-0.5-3.5-0.4-5,0.1c-1.7,0.7-2.8,1.9-3.2,3.7c-0.4,1.6-0.1,3.2,1,4.6C296.2,57,297.6,57.8,299.3,58.3
			z"/>
		<path d="M361.9,105.8l-4.5-2.3l-5.9,2.2l-4.1-2.6c2.9-1.1,5.7-2.2,8.3-3.1c3.6-1.4,7.5-2.8,11.7-4.2l1.6-0.6l-0.5-2.9l-0.8-0.5
			c-3.3-2.1-7.4-4.7-12.1-7.8c-3-2-6.3-4.1-9.7-6.4l-1.3-0.6l-1.6,1.1l-0.2,0.6c-0.8,2.3-1.7,4.6-2.7,6.9l-0.7,1.7l4.1,2l4.3-3
			l3.7,2.4c-3.3,1.2-6.1,2.3-8.4,3.1c-3,1.1-6.9,2.5-11.7,4.2c0.9-1.8,1.9-3.5,2.9-5.3l1.3-2.2l-4.8-1.5l-5.4,3.2l-4.5-1.9
			c2.7-1.6,5.3-3.1,7.6-4.5c3.3-2,6.9-4,10.8-6.2l1.5-0.8l-1-2.8l-0.8-0.3c-3.6-1.5-8.1-3.4-13.2-5.6c-3.3-1.4-6.9-3-10.6-4.6
			l-1.4-0.4l-1.4,1.4l-0.1,0.6c-0.4,2.4-0.9,4.8-1.5,7.3l-0.4,1.8l4.4,1.3l3.7-3.7l4,1.7c-3.1,1.8-5.7,3.3-7.7,4.5
			c-2.6,1.5-6,3.4-10,5.7v-0.3l-4.1-2.1c0.2-0.7,0.4-1.8,0.8-3.1l2.3-9c0.6-2.4,1.3-4.7,2-6.9l0.4-1.2l-1.7-1.6l-0.7-0.1
			c-3.8-0.3-8.2-0.8-13.2-1.5l-2.1-0.3l-0.3,4.5L292,64c-0.3,1.3-0.6,2.7-1,4.2l-2,7.7c-0.2,0.9-0.4,1.6-0.6,2.1l-5-0.2l-0.6,4.8
			l1.7,0.4c2.9,0.7,5.8,1.4,8.7,2.2c2.9,0.8,5.8,1.5,8.7,2.3l2.1,0.6v-0.2l0.2,0.1c3.1,1.3,7.4,3.1,13,5.5c4,1.7,7.6,3.3,10.8,4.7
			l0.7,0.3l1.5-0.4l0.1,1.2l0.9,0.5c2.8,1.8,6.8,4.3,11.8,7.6c3.6,2.4,6.9,4.5,9.8,6.5l0.6,0.4l1.9-0.2l0.5-0.7c1.5-2,3.1-4,4.7-5.9
			L361.9,105.8z"/>
		<path d="M391.8,146.6c0.9-0.7,2.1-1.6,3.6-2.8l7.2-5.5c0.7,0.6,1.2,1,1.4,1.3c0.3,0.4,0.2,0.5,0.2,0.8c-0.3,0.8-0.9,1.9-1.8,3.1
			l-0.9,1.4l3.4,3.5l1.3-0.6c2.7-1.3,5.3-2.5,7.7-3.5l1-0.6l0.4-1.9l-0.5-0.7c-1.9-2.6-4.3-4.7-7-6.5l0.7-0.6l-0.6-2.3l-0.4-0.4
			c-2.9-2.7-6-5.8-9.2-9.2l-1.5-1.5l-3,3.3l1.8,3.9c-0.9,0.7-2,1.6-3.3,2.6l-6.5,5c-0.6,0.5-1.2,0.9-1.6,1.2l-3-2.6l1.6-2.4
			l-1.6-1.1c-1.6-1.1-3.2-2.4-4.7-3.9c-3.8-3.6-4.9-6-5.2-7.3c-0.3-1.3,0-2.6,0.9-4l14,13.2l1.4-1.1c0.5-0.4,0.9-0.8,1.3-1.2
			c2.6-2.7,3.6-5.9,3.1-9.3c-0.5-3.3-2.4-6.5-5.7-9.7c-3.7-3.5-7.8-5.5-12-6c-4.5-0.5-8.2,0.9-11.1,4.1c-3.1,3.3-4.1,7.2-3,11.5
			c1,4,3.6,7.8,7.5,11.5c3.2,3,6.9,5.3,10.9,6.9l-1.4,1.4l1.1,1.4c1.8,2.3,3.6,4.7,5.4,7c1.9,2.5,3.8,5.1,5.8,7.8l1.3,1.8l3.6-3.2
			L391.8,146.6z M376.6,110.9c0.6-0.3,1.2-0.5,1.8-0.6c1.1-0.2,1.9,0.1,2.7,0.9c0.8,0.7,0.8,1.2,0.8,1.6c0,0.3-0.2,1-1.1,2.1
			L376.6,110.9z"/>
		<path d="M425.7,156.5c0.7,0.3,1.5,0.5,2.2,0.5c0.9,0,1.8-0.2,2.6-0.7c1.6-0.9,2.5-2.2,2.7-3.9c0.2-1.5-0.2-3-1.1-4.5
			c-0.9-1.7-2.1-2.8-3.5-3.5c-1.6-0.7-3.3-0.7-4.9,0.2c-1.5,0.8-2.4,2.2-2.6,3.9c-0.2,1.5,0.1,3.1,1,4.7
			C423,154.7,424.2,155.9,425.7,156.5z"/>
		<path d="M434.4,180.6c-1.5-4-3.9-7.9-7-11.6l-1.4-1.6l-4.3,4.2l1,1.4c1.6,2.4,2.8,4.5,3.5,6.3c0.8,2.1,0.7,3.3,0.6,3.9
			c-0.1,0.4-0.4,1-1.7,1.5c-2-4.9-4-8.5-6.1-10.8c-3.4-3.8-6.8-3.6-9-2.7c-1.1,0.4-2.1,1.1-2.8,1.9l-1-3.2c0.7-0.4,1.6-0.9,2.7-1.6
			l8.1-4.5c2.2-1.2,4.3-2.3,6.3-3.3l1.1-0.5v-2.3l-0.5-0.6c-2.4-3-5.1-6.5-8.1-10.6l-1.3-1.7l-3.4,2.9l1.3,4.1
			c-1.2,0.7-2.4,1.4-3.7,2.2l-6.9,3.9c-0.8,0.4-1.4,0.8-1.9,1.1l-3.4-3.8l-3.8,2.9l0.9,1.5c1.5,2.6,3,5.2,4.5,7.8s2.9,5.2,4.3,7.9
			l1,1.9l2.1-1.4c-0.2,0.4-0.3,0.9-0.4,1.4c-0.5,2.5-0.2,5.3,1,8.3c0.9,2.5,2.5,4.7,4.6,6.6c-0.6,1.5-0.8,3.5,0.2,6.3
			c0.8,2.1,2.1,4.4,4,7l1.1,1.5l4-2.3l-0.6-1.6c-0.4-1.2-0.6-1.8-0.6-2.1c-0.1-0.3,0-0.4,0-0.3c0.2-0.1,0.7-0.3,1.5-0.6l9.6-3.5
			c2.9-1.1,4.8-3.1,5.6-5.9C436.2,187.7,435.9,184.5,434.4,180.6z M415.2,188.3c-0.4-0.5-0.7-1.1-0.9-1.8c-0.3-0.9-0.4-1.7-0.3-2.5
			c0-0.2,0.1-0.6,1.1-1c0.3-0.1,0.6-0.2,0.8-0.2c0.4,0,0.7,0.2,1,0.5c0.5,0.5,1.2,1.4,2.1,3.5L415.2,188.3z"/>
	</g>
</g>
<g>
	<path class="st0" d="M67.8,153.2c1.2-2.5,2.3-4.9,3.3-6.9c0.8-1.8,1.8-4,2.9-6.6l1.2,0.4l-0.9,4.2c-0.1,0.5,0.1,0.8,0.4,1
		c1,0.5,2.2,1.1,3.7,1.8l17.8,8.2c1.8,0.8,3.2,1.5,4.5,2c0.4,0.1,0.7,0,1-0.4l2.5-3.3l1.2,0.4c-1.3,2.6-2.6,5.6-4.1,8.8
		c-1.4,3.2-2.6,5.8-3.6,8l-1.2-0.4l0.7-3.6c0.1-0.5-0.1-0.9-0.5-1.1c-1.1-0.6-2.6-1.3-4.3-2.1L78.1,157c-0.8-0.4-2.2-1.1-4.4-2.1
		c1,1.2,2,2.5,3.1,3.8l16.7,21.2l-1,2.6l-26,0.9c-1.5,0.1-3.1,0.1-4.9,0.1c2.1,0.9,3.5,1.6,4.2,1.9l13.8,6.4c1.8,0.8,3.2,1.5,4.4,2
		c0.4,0.2,0.8,0.1,1.1-0.4l2.2-2.7l1.2,0.4c-1.1,2.2-2,4.1-2.7,5.7c-0.7,1.6-1.7,3.7-2.8,6.3l-1.2-0.4l0.9-4.1
		c0.1-0.5,0-0.9-0.3-1.1c-1.2-0.6-2.7-1.3-4.4-2.1l-18-8.1c-1.5-0.7-2.7-1.2-3.7-1.7c-0.4-0.2-0.7,0-1,0.3l-2.6,3.4l-1.2-0.4
		c1.5-3.1,2.6-5.4,3.3-6.9c1-2.1,1.9-4.3,2.9-6.6l24.2-0.7c1,0,2-0.1,2.9,0c-0.6-0.7-1.2-1.5-1.9-2.3L67.8,153.2z"/>
	<path class="st0" d="M92.8,137.8c1.5-4.4,3.6-8.2,6.1-11.3c2.3-2.9,4.6-4.6,6.8-5.2c2.2-0.6,4.2-0.1,6.1,1.5l7.8,6.6
		c0.6,0.6,1.2,1,1.6,1.2c0.4,0.3,0.9,0.4,1.3,0.3c0.4-0.1,0.8-0.3,1.3-0.7s1-1,1.8-1.8l1,0.6c-1.2,2.7-2.5,4.9-3.8,6.5
		c-1.8,2.2-3.6,3-5.5,2.6c-0.3,3.1-1.3,5.8-3.2,8.1c-1.8,2.2-3.7,3.7-5.8,4.4c-2,0.7-3.9,0.4-5.5-0.9c-2-1.6-2.5-4-1.6-7.1
		c1-3.1,3.3-6.9,7.1-11.6l-1.4-1.2c-1.3-1.1-2.7-1.5-4-1.2s-2.7,1.4-4.1,3.1c-1.3,1.6-2.6,3.8-3.9,6.6L92.8,137.8z M110.2,132.5
		c-2,2.5-3.2,4.5-3.6,6s0.1,2.7,1.3,3.7c1.1,0.9,2.2,1.2,3.3,0.8c1.1-0.4,2.1-1.1,2.9-2.1c1-1.2,1.5-2.4,1.8-3.7L110.2,132.5z"/>
	<path class="st0" d="M114.2,111.7c3.2-3.5,6.1-6.8,8.6-9.9l0.5-0.2l1.7,2c1.5-3.8,3.8-7,6.8-9.6h0.2c1.2,2.4,2.6,4.9,4.1,7.6
		l-1.2,1.4c-1.5-0.9-2.7-1.5-3.6-1.8c-1-0.3-1.8-0.1-2.7,0.6c-0.8,0.7-1.6,1.8-2.4,3.2l6.9,8c1.7,1.9,2.9,3.3,3.6,4.1
		c0.3,0.3,0.7,0.4,1.1,0.1l3.9-2.2l0.8,0.8c-2.6,2.2-5.1,4.3-7.4,6.3c-2.2,1.9-4.4,3.9-6.6,5.9l-0.9-0.8l2.4-3.2
		c0.3-0.4,0.3-0.8,0.1-1.1c-0.4-0.5-1.1-1.3-2-2.3l-5.4-6.2c-1.8-2-3.1-3.5-3.9-4.3l-3.9,2.2L114.2,111.7z"/>
	<path class="st0" d="M143,76.7c0.6,0.9,0.7,2,0.4,3.1c-0.4,1.1-1.2,2-2.4,2.8c-1.1,0.7-2.2,1.1-3.3,1s-1.9-0.6-2.5-1.5
		c-0.6-1-0.7-2-0.3-3.1s1.2-2,2.5-2.8c1.1-0.7,2.2-1.1,3.3-1C141.5,75.3,142.4,75.8,143,76.7z M137.2,92.5c3.9-3.3,7.3-6.2,10.1-8.9
		h0.4c1.1,2,2.4,4,3.8,6.2l5.1,7.8c1.1,1.6,1.8,2.8,2.3,3.4c0.3,0.3,0.6,0.4,1.1,0.3l3.7-1.4l0.7,0.9c-2.6,1.6-5.1,3.2-7.6,4.9
		c-2.6,1.7-5.1,3.3-7.5,5l-0.8-0.9l2.8-2.9c0.3-0.3,0.4-0.7,0.2-1c-0.3-0.6-0.9-1.5-1.7-2.7l-4.3-6.7c-1.2-1.8-2.3-3.4-3.3-4.9
		l-4.2,1.6L137.2,92.5z"/>
	<path class="st0" d="M189.7,75.5c1.5,3.4,1.4,6.8-0.5,10.2c-1.9,3.4-5.1,6.1-9.7,8.2c-4.4,2-8.4,2.6-11.9,1.8
		c-3.5-0.8-6-2.8-7.5-6.1c-1.5-3.3-1.3-6.6,0.5-10s5.1-6.1,9.8-8.2c4.5-2,8.4-2.6,11.9-1.9C185.8,70.4,188.2,72.3,189.7,75.5z
		 M168.6,85.3c1.2,2.7,2.7,4.7,4.5,6c1.8,1.2,3.8,1.4,6,0.3c2.1-0.9,3.3-2.4,3.6-4.3s-0.2-4.4-1.5-7.3c-1.2-2.8-2.7-4.7-4.5-5.8
		c-1.8-1.1-3.7-1.2-5.9-0.2c-2.1,0.9-3.3,2.3-3.6,4.2C166.8,80,167.3,82.4,168.6,85.3z"/>
	<path class="st0" d="M189.9,63.5c2.3-2.7,3.1-5,2.6-6.9c-0.5-1.7-2-2.6-4.4-2.8c-0.3-1-0.2-1.9,0.4-2.7c0.6-0.8,1.5-1.4,2.6-1.7
		c1.3-0.4,2.4-0.3,3.5,0.3c1.1,0.5,1.8,1.4,2.1,2.6c0.5,1.8,0.3,3.7-0.6,5.8c-0.9,2-2.4,4.2-4.5,6.5L189.9,63.5z"/>
	<path class="st0" d="M218.5,59.8c-1.3,0-2.7,0.1-4.1,0.4c-1.8,0.4-3.2,0.9-4.3,1.6c-1,0.7-1.4,1.6-1.3,2.5c0.1,0.7,0.5,1.2,1.1,1.5
		s1.5,0.5,2.8,0.6l5.1,0.4c3,0.2,5.3,0.8,6.8,1.7c1.5,0.9,2.5,2.1,2.8,3.6c0.5,2.4-0.4,4.5-2.7,6.3c-2.2,1.8-5.4,3.1-9.4,3.9
		c-3.4,0.7-6.8,0.8-10.3,0.3c0.3-2.3,0.4-4.5,0.5-6.6l1.5-0.5l3.2,4.8c1.3,0.1,2.8,0,4.7-0.4c1.7-0.3,3.1-0.9,4-1.6
		c1-0.7,1.3-1.6,1.1-2.5c-0.2-0.8-0.6-1.4-1.4-1.8c-0.7-0.4-2.1-0.7-4.2-0.8l-3.8-0.3c-2.5-0.2-4.4-0.7-5.8-1.6
		c-1.4-0.8-2.2-2-2.5-3.6c-0.5-2.4,0.4-4.4,2.4-6.1c2.1-1.7,5.2-3,9.2-3.8c3.3-0.7,6.4-0.9,9.3-0.6c-0.2,2.2-0.3,4.3-0.4,6.3
		l-1.6,0.5L218.5,59.8z"/>
	<path class="st0" d="M261.4,70.6c-0.1,1-0.1,1.9-0.2,2.6c-0.1,0.8-0.1,1.5-0.1,2.1c0,0.4,0.2,0.7,0.7,0.9l4.4,1.4v1.2
		c-3.2-0.3-6.5-0.6-9.9-0.9c-3.6-0.3-6.8-0.5-9.6-0.7l-0.1-1.2l4.2-0.6c0.5-0.1,0.8-0.3,0.9-0.7c0.1-0.7,0.1-1.4,0.2-2.2
		c0.1-0.8,0.2-1.7,0.2-2.7l1.6-19.6c0.1-0.8,0.1-1.6,0.2-2.2c0-0.7,0.1-1.3,0.1-1.8c0-0.4-0.2-0.7-0.7-0.9l-4-1.3v-1.3
		c2.9,0.3,5.7,0.6,8.5,0.8c1.9,0.2,3.8,0.3,5.6,0.4c1.8,0.1,3.5,0.2,5,0.3c5.5,0.4,9.6,1.6,12.3,3.3c2.7,1.8,3.9,4.2,3.7,7.2
		c-0.3,3.6-2,6.2-5.1,7.9c-3.1,1.7-7.4,2.4-12.7,1.9c-1.5-0.1-3-0.3-4.7-0.7L261.4,70.6z M262.2,61.6c1.1,0.3,2.3,0.5,3.4,0.6
		c2.7,0.2,4.8-0.3,6.3-1.5s2.4-3.1,2.6-5.8c0.2-2.6-0.3-4.6-1.5-5.9c-1.2-1.4-3.3-2.2-6.1-2.4c-1.1-0.1-2.3-0.1-3.4-0.1L262.2,61.6z
		"/>
	<path class="st0" d="M290,60.2c5,0.7,9.5,1.2,13.3,1.5l0.3,0.3c-0.7,2.2-1.4,4.5-2,7l-2.3,9c-0.5,1.9-0.8,3.2-1,4
		c-0.1,0.4,0.1,0.8,0.5,1l3.5,1.8l-0.2,1.2c-2.9-0.8-5.8-1.6-8.7-2.4c-3-0.8-5.9-1.5-8.8-2.2l0.1-1.2l4,0.1c0.5,0,0.8-0.2,0.9-0.5
		c0.2-0.6,0.5-1.6,0.9-3.1l2-7.7c0.5-2.1,1-4,1.4-5.8l-4-2L290,60.2z M305.6,53.9c-0.3,1.1-1,1.9-2,2.3c-1.1,0.5-2.3,0.5-3.7,0.1
		c-1.3-0.3-2.3-0.9-3-1.8c-0.7-0.9-0.9-1.8-0.6-2.8c0.3-1.1,1-1.9,2-2.3c1.1-0.4,2.3-0.4,3.7-0.1c1.3,0.3,2.3,0.9,3,1.7
		C305.7,51.9,305.9,52.8,305.6,53.9z"/>
	<path class="st0" d="M304.6,86.1c4.5-2.5,8.1-4.5,10.9-6.2c2.8-1.6,6.5-3.8,11.2-6.5l-8.9-3.8l-3.8,3.8l-1.5-0.4
		c0.6-2.5,1.1-5,1.5-7.4l0.2-0.2c3.7,1.7,7.3,3.2,10.6,4.6c5.2,2.2,9.6,4.1,13.2,5.6l0.1,0.3c-3.9,2.2-7.5,4.2-10.8,6.2
		c-3.4,2-7,4.1-11,6.5l9,3.8l5.6-3.3l1.6,0.5c-1.3,2.2-2.6,4.5-3.7,6.8l-0.3,0.1c-3.2-1.4-6.8-3-10.8-4.7c-5.6-2.4-9.9-4.2-13-5.5
		L304.6,86.1z"/>
	<path class="st0" d="M331.9,98c4.8-1.7,8.7-3.1,11.8-4.2c3.1-1.1,7.1-2.6,12.1-4.5l-8.1-5.3l-4.4,3.1l-1.4-0.7c1-2.4,1.9-4.7,2.8-7
		l0.2-0.1c3.4,2.3,6.6,4.4,9.7,6.4c4.7,3.1,8.7,5.7,12.1,7.8l0.1,0.4c-4.2,1.5-8.1,2.9-11.7,4.2c-3.6,1.4-7.6,2.9-12,4.5l8.2,5.3
		l6-2.2l1.5,0.7c-1.7,2-3.3,4-4.8,6h-0.3c-2.9-2-6.2-4.1-9.8-6.5c-5.1-3.3-9-5.8-11.9-7.6L331.9,98z"/>
	<path class="st0" d="M379,133.3c-3.8-1.5-7.3-3.7-10.3-6.5c-3.6-3.4-5.9-7-6.9-10.6s-0.1-6.8,2.5-9.7c2.5-2.7,5.7-3.8,9.5-3.4
		s7.4,2.2,10.9,5.4c3,2.8,4.7,5.7,5.1,8.5s-0.4,5.4-2.6,7.7c-0.3,0.3-0.7,0.7-1.1,1l-14.3-13.5c-2.3,2.4-3.1,4.8-2.7,7.3
		c0.5,2.4,2.4,5.2,5.8,8.4c1.6,1.5,3.3,2.9,5,4L379,133.3z M381,117.7l0.4-0.4c1.5-1.6,2.4-3,2.5-4.2s-0.3-2.3-1.4-3.3
		c-1.3-1.2-2.7-1.7-4.4-1.4c-1.7,0.3-3.2,1-4.6,2.3L381,117.7z"/>
	<path class="st0" d="M396.7,123.4c3.3,3.4,6.4,6.5,9.3,9.2l0.1,0.5l-2.1,1.6c3.7,1.8,6.7,4.2,9.1,7.4v0.2c-2.5,1.1-5.1,2.2-7.8,3.6
		l-1.3-1.3c1-1.4,1.6-2.6,2-3.5s0.2-1.8-0.4-2.7c-0.6-0.8-1.6-1.7-3-2.6l-8.4,6.4c-2,1.5-3.5,2.7-4.3,3.4c-0.4,0.3-0.4,0.7-0.2,1.1
		l1.9,4.1l-0.9,0.8c-2-2.7-4-5.4-5.8-7.8c-1.8-2.4-3.6-4.7-5.4-7l0.8-0.8l3,2.6c0.4,0.3,0.7,0.4,1.1,0.2c0.6-0.4,1.4-1,2.4-1.8
		l6.5-5c2.1-1.6,3.7-2.8,4.6-3.6l-1.9-4.1L396.7,123.4z"/>
	<path class="st0" d="M414.2,147.6c3,4.1,5.7,7.7,8.1,10.7v0.4c-2,1-4.2,2.1-6.4,3.4l-8.1,4.5c-1.7,1-2.9,1.6-3.5,2.1
		c-0.4,0.3-0.5,0.6-0.4,1.1l1.1,3.8l-1,0.7c-1.4-2.7-2.9-5.3-4.3-7.9c-1.5-2.7-3-5.3-4.5-7.9l1-0.7l2.7,3c0.3,0.4,0.7,0.5,1,0.3
		c0.6-0.3,1.5-0.8,2.8-1.5l6.9-3.9c1.9-1.1,3.6-2.1,5.1-3l-1.4-4.3L414.2,147.6z M429.5,154.5c-1,0.6-2,0.6-3.1,0.2
		c-1.1-0.5-1.9-1.3-2.7-2.6c-0.7-1.2-0.9-2.3-0.8-3.4c0.2-1.1,0.7-1.9,1.6-2.4c1-0.6,2-0.6,3.1-0.1c1,0.5,1.9,1.4,2.6,2.7
		c0.7,1.2,0.9,2.3,0.8,3.4C431.1,153.2,430.5,154,429.5,154.5z"/>
	<path class="st0" d="M425.9,170.4c3,3.5,5.2,7.2,6.7,11c1.3,3.5,1.7,6.3,1.1,8.5s-2,3.7-4.4,4.6l-9.6,3.5c-0.8,0.3-1.4,0.5-1.9,0.8
		c-0.4,0.3-0.7,0.6-0.9,0.9c-0.1,0.4-0.2,0.9-0.1,1.4c0.1,0.6,0.3,1.4,0.7,2.4l-1,0.6c-1.7-2.4-3-4.6-3.7-6.5
		c-1-2.6-0.8-4.6,0.5-6.1c-2.6-1.8-4.3-4.1-5.4-6.8c-1-2.7-1.3-5.1-0.9-7.2c0.4-2.1,1.6-3.6,3.5-4.3c2.4-0.9,4.7-0.2,6.9,2.2
		c2.2,2.4,4.3,6.4,6.4,12l1.7-0.6c1.6-0.6,2.7-1.6,3.1-2.9c0.4-1.3,0.2-3-0.6-5.2c-0.7-2-2-4.2-3.7-6.7L425.9,170.4z M421.7,188.1
		c-1.1-3-2.2-5.1-3.3-6.1c-1.1-1.1-2.4-1.3-3.9-0.7c-1.3,0.5-2.1,1.3-2.4,2.5c-0.2,1.1-0.1,2.3,0.4,3.6c0.5,1.4,1.3,2.6,2.3,3.4
		L421.7,188.1z"/>
</g>
<g>
	<path class="st1" d="M250,475C126.3,475,25.7,374.1,25.7,250S126.3,25,250,25s224.3,100.9,224.3,225S373.7,475,250,475z M250,27.7
		C127.8,27.7,28.4,127.4,28.4,250S127.8,472.3,250,472.3S471.6,372.6,471.6,250S372.2,27.7,250,27.7z"/>
</g>
<g>
	<path class="st0" d="M80.6,236.8c0,10.6-8.6,19.2-19.1,19.2c-10.6,0-19.1-8.6-19.1-19.2c0-10.6,8.6-19.2,19.1-19.2
		C72.1,217.6,80.6,226.2,80.6,236.8z"/>
	<path d="M61.5,256.6c-10.9,0-19.8-8.9-19.8-19.8c0-10.9,8.9-19.8,19.8-19.8s19.8,8.9,19.8,19.8C81.3,247.7,72.4,256.6,61.5,256.6z
		 M61.5,218.3c-10.2,0-18.4,8.3-18.4,18.5s8.3,18.5,18.4,18.5S80,247,80,236.8S71.7,218.3,61.5,218.3z"/>
</g>
<path class="st1" d="M76.3,240.4v-0.2l0,0l0,0l0,0h-0.1l0,0l-0.4-0.1l0,0l-0.5-0.1l0,0h-0.2l0,0H75h-0.2l0,0l-0.1,0.1l0,0l-0.1,0.1
	h-0.1l-0.9,0.2l0,0l-0.3,0.2l0,0l-0.2,0.2c0,0,0,0,0,0.1v0.1l0,0l0,0l-0.1,0.1l0,0v0.2l0,0v0.1v0.3l0,0v0.1v0.1l-0.1,0.1l0,0v0.5
	l-0.2,0.2l-0.2,0.1l-0.2,0.1l0,0l-0.1,0.1v0.1c0,0,0,0,0.1,0h0.1h0.1v0.1l-0.2,0.1c0,0,0,0,0,0.1l0,0l0,0l0,0h-0.1l0,0
	c0,0,0,0,0-0.1l0,0l-0.2-0.1c0,0,0,0-0.1,0l-0.5,0.1l0,0l-0.2,0.1l0,0l0,0l-0.2,0.3h-0.2h-0.3h-0.2l0,0l-0.2,0.1l-0.2,0.1l0,0h-0.5
	l0,0l-0.1-0.1l-0.3-0.2l0,0h-0.2l-0.2-0.1l0,0h-0.4l-0.1-0.1l0,0l-0.1-0.1l-0.1-0.2c0,0,0,0-0.1,0l0,0v-0.3c0,0,0-0.1-0.1-0.1l0,0
	l-0.1-0.1v-0.1l0,0l0,0l-0.1-0.3l0,0l-0.2-0.3l-0.5-0.5v-0.1l0,0L66,241l0,0c0,0,0.1,0,0.1-0.1l0.1-0.3c0,0,0,0,0-0.1l-0.2-0.2
	l-0.1-0.1l0,0l-0.1-0.3l0,0l-0.1-0.3l0,0c0,0,0,0,0-0.1l0,0v-0.1l0,0l0,0l0,0l0.1-0.2l0,0v-0.4v-0.3l0,0l0,0v-0.1l0,0c0,0,0,0,0-0.1
	V238l0,0v-0.4l0,0v-0.2c0,0,0,0,0-0.1l0,0v-0.1l0,0l0,0v-0.1l0,0l0,0h0.1l0.3-0.8l0,0V236c0,0,0,0,0-0.1c0,0,0,0-0.1,0l0,0l0,0l0,0
	c0,0,0,0-0.1,0l0,0l0,0h-0.1l-0.1-0.1l0,0h-0.5l-0.2-0.1l0,0h-0.2l0,0l0,0l-0.1-0.1l0,0l-0.4-0.1l-0.1-0.1l-0.1-0.2l-0.1-0.2
	l-0.2-0.4l-0.1-0.4l0,0l-0.2-0.1l0,0h-0.1l-0.1-0.3l0,0l-0.2-0.2l-0.1-0.2l-0.1-0.2l-0.1-0.2l-0.1-0.2l-0.1-0.2l0,0l-0.1-0.1
	l-0.1-0.1l-0.1-0.1l0,0l-0.2-0.1l-0.1-0.1V232l0,0l-0.1-0.1l0,0l-0.3-0.1l-0.2-0.1l0,0l-0.1,0.1h-0.3l0,0l-0.2,0.1h-0.1l0,0
	l-0.1,0.1l0,0l-0.1,0.4l-0.2,0.2l0,0l-0.4-0.2l0,0c0,0,0,0-0.1,0l-0.2-0.1l-0.2-0.1l-0.2-0.2l-0.3-0.2l-0.2-0.8l0,0l-0.1-0.1l0,0
	l-0.3-0.3l0,0h-0.1l-0.4-0.6l0,0l-0.3-0.2l-0.1-0.1v-0.1l0,0v-0.1l0,0l0,0l0,0h-0.2l-0.3-0.2l0,0h-1.1c0,0-0.1,0-0.1,0.1v0.4h-0.3
	h-2.2L50,228l0,0l-0.4-0.2v-0.1l0,0v-0.2l0,0l0,0h-2.2c0,0-0.1,0-0.1,0.1v0.1l0,0v0.1v0.1l0,0l0,0l0,0l0,0l0,0l0,0c0,0,0,0,0,0.1
	c0,0,0,0,0.1,0l0,0l0.1,0.3l0,0v0.1l0,0l0.1,0.1v0.2c0,0,0,0,0,0.1l0,0v0.1l0,0l0.1,0.1l0,0l0,0c0,0,0,0-0.1,0c0,0,0,0,0,0.1v0.1
	l0,0l0,0v0.1l0.1,0.1l0,0h0.1l0.1,0.2v0.1v0.1c0,0,0,0,0,0.1l0,0l0,0L48,230v0.4c0,0,0,0,0,0.1l0,0l0,0l0,0h0.1v0.1v0.3v0.1l0,0v0.1
	l0,0l0.1,0.1v0.1l0,0l0,0l0.2,0.2v0.1l0,0l0.2,0.1l0.2,0.3l0,0l0,0l0.1,0.2l0,0H49l0.1,0.2l0,0l0,0l0,0l0,0l0.1,0.1l-0.1,0.2
	c0,0,0,0,0,0.1v0.1v0.1l0,0H49l0,0l0,0l0,0l0,0l0,0l-0.2,0.1h-0.3h-0.1l0,0c0,0,0,0-0.1,0c0,0,0,0,0,0.1v0.1c0,0,0,0.1,0.1,0.1l0,0
	l0,0l0,0l0,0h0.1l0.1,0.1l0,0l0.2,0.1v0.2c0,0,0,0,0,0.1l0,0l0,0l0.1,0.1c0,0,0,0,0.1,0l0,0l0.1,0.2c0,0,0,0,0.1,0H50l0.1,0.1l0,0
	l0.1,0.1l0,0h0.1l0,0l0.1-0.1l0.1,0.1l0,0l0,0h0.1l0,0l0,0l0.2,0.2c0,0,0,0,0,0.1l0.1,0.1l0,0H51l0,0h0.1h0.1v0.1c0,0,0,0,0,0.1l0,0
	l0.1,0.3v0.1l0,0l0,0v0.4l-0.1,0.1l0,0v0.1l0,0v0.1v0.1l0,0l0.1,0.1c0,0,0,0,0.1,0h0.1l0,0l0.1,0.1v0.1c0,0,0,0.1,0.1,0.1h0.1
	c0,0,0,0,0.1,0l0,0l0,0l0,0l0,0l0.1,0.2l0,0l0.4,0.2l0.4,0.4l0,0l0.3,0.2l0.1,0.2l0.1,0.4l0,0l0.1,0.1c0,0,0,0,0.1,0h0.1l0,0
	l0.2-0.1l0,0l0.1-0.1L54,238l0,0l0.1-0.1l0,0v-0.2l0,0l-0.1-0.2l0,0l-0.2-0.1v-0.1l0,0l-0.1-0.1v-0.1c0,0,0,0,0-0.1l0,0
	c0,0,0,0-0.1,0h-0.1v-0.1l0,0l-0.1-0.1l-0.1-0.1c0,0,0,0-0.1,0h-0.1l0,0c0,0,0,0,0,0.1v0.1l0,0l0,0H53l-0.1-0.1v-0.1v-0.2L53,237
	l0,0v-0.1l0,0l-0.1-0.1l0,0l-0.1-0.1v-0.1v-0.1l0,0l-0.1-0.1v-0.1v-0.1h-0.1v-0.1l0,0l0,0l0,0V236v-0.1v-0.1l0,0l-0.1-0.1v-0.1l0,0
	v-0.1v-0.1v-0.1h-0.1v-0.1c0,0,0,0,0-0.1l-0.3-0.2c0,0,0,0-0.1,0l-0.1-0.1l0.1-0.1c0,0,0,0,0-0.1c0,0,0,0,0-0.1l-0.2-0.1
	c0,0,0,0,0-0.1l-0.1-0.1V234l0,0l-0.1-0.1l0,0l0,0l-0.1-0.2v-0.1v-0.1l0,0v-0.1c0,0,0,0,0-0.1l-0.1-0.1v-0.1c0,0,0,0,0-0.1l0,0h-0.1
	l0,0l-0.1-0.3c0,0,0,0,0-0.1l0,0l0,0l0,0l0,0l0,0v-0.1c0,0,0,0-0.1,0l0,0v-0.1l0,0l-0.1-0.1v-0.1l0,0l-0.1-0.1l0,0l-0.3-0.3
	l-0.1-0.2l0,0h-0.1c0,0,0,0-0.1,0l0,0l0,0v-0.1l0,0l-0.1-0.1l-0.1-0.2l0.1-0.3l0,0l-0.1-0.2v-0.3c0,0,0,0,0-0.1l-0.1-0.1l0,0
	c0,0,0,0,0-0.1V230l0.1-0.4l0.1-0.1c0,0,0,0,0-0.1v-0.1l0,0h0.1l0.3,0.3l0,0h0.2c0,0,0,0,0.1,0l0.1-0.1l0.2,0.1v0.1l0,0v0.1l0.2,0.1
	l0.2,0.1l0,0l0,0c0,0,0,0,0.1,0l0,0l0,0l-0.1,0.3l0,0v0.1l0,0l0.2,0.3v0.2l0,0l0,0l0,0l0,0v0.3c0,0,0,0.1,0.1,0.1l0,0l0.1,0.2l0,0
	l0.1,0.2v0.1l0,0v0.1l0,0l0,0c0,0,0,0,0.1,0l0,0v0.1c0,0,0,0,0,0.1l0,0v0.2c0,0,0,0.1,0.1,0.1l0,0l0.1,0.1l0,0c0,0,0,0,0,0.1
	l0.2,0.2l0.1,0.1l0,0l0.2,0.1l0,0l0.1,0.2l0.2,0.3c0,0,0,0,0.1,0h0.1l0.1,0.1c0,0,0,0,0.1,0c0,0,0,0,0.1,0l0,0l0,0l0,0h0.1l0,0v0.1
	l0,0c0,0,0,0,0,0.1v0.1v0.2c0,0,0,0.1,0.1,0.1l0,0v0.1H54l0.1,0.1l0,0l0.2,0.1l0,0h0.1l0,0v0.1l0.1,0.3l0,0l0.1,0.1h0.1l0,0h0.1l0,0
	l0.2,0.1v0.1v0.1l0,0l0,0l-0.2,0.2l0,0v0.1l0,0v0.1l0,0l0,0v0.1c0,0,0,0,0.1,0.1H55l0,0l0,0l0,0h0.1l0,0l0,0l0,0l0.1,0.1
	c0,0,0,0,0.1,0l0,0l0,0l0,0c0,0,0,0,0.1,0l0,0l0,0c0,0,0,0,0,0.1l0,0l0,0l0,0v0.1l0.2,0.1v0.1l0,0l0,0l0,0c0,0,0,0,0,0.1l0.1,0.1
	l0.1,0.2l0,0l0,0l0,0l0,0l0.1,0.1l0,0L56,237c0,0,0,0,0.1,0l0,0l0,0l0.5,0.3l0.2,0.2l0,0l0.1,0.1l0.1,0.2l0,0l0.3,0.3l0.1,0.2
	c0,0,0,0,0.1,0l0,0l0.1,0.1l0.2,0.2l0,0l0.2,0.2l0.1,0.1l0,0l0,0l0,0l0.1,0.1v0.4l0,0l0.1,0.2l0.1,0.2l0,0l0.2,0.1l-0.1,0.1l0,0v0.1
	v0.1h-0.1c0,0,0,0,0,0.1v0.3l0,0l0,0l0,0c0,0,0,0,0.1,0l0,0l0,0l0,0v0.1h-0.1v0.1l0,0v0.1c0,0,0,0,0,0.1l0.2,0.2v0.2l-0.1,0.1v0.1
	v0.1v0.1c0,0,0,0,0,0.1l0.1,0.1v0.1l0,0l0.1,0.1l0,0l0,0l0,0l0.1,0.1l0,0h0.1l0,0l0.1,0.1l0,0l0,0l0,0c0,0,0,0,0,0.1l0.3,0.1
	l0.2,0.2l0,0l0,0v0.1l0.1,0.1l0.1,0.2l0,0l0.4,0.2l0.3,0.1l0.2,0.1l0.4,0.1h0.1l0.1-0.1h0.1l0.1,0.1l0.1,0.2l0,0h0.1l0,0l0,0
	l0.1,0.1l0,0l0.3,0.2v0.1l0,0l1.1,0.4l0,0l0,0l0,0l0,0l0.2,0.1l0,0l0.7,0.1l0.2,0.1h0.1l0,0l0,0l0.2,0.2l0,0l0.3,0.1l0,0l0.3,0.1
	l0,0l0.1,0.1l0,0l0.6,0.1l0.3,0.2l0,0L67,247h0.1c0,0,0,0,0.1,0l0,0h0.2l0,0l0.2-0.1l0.5-0.2l0,0l0.1-0.2h0.1l0,0h0.3l0,0l0,0h0.2
	l0.5,0.1c0,0,0,0,0.1,0l0,0l0.4,0.2l0.4,0.3l0.2,0.2l0,0l0.1,0.1l0,0l0,0v0.1l0.4,0.4l0,0l0,0L71,248l0,0h0.1l0,0l0,0l0,0l0,0v-0.1
	l0.1-0.1l0,0v-0.1l0,0v-0.1v-0.1l0.1-0.1l0,0v-0.1c0,0,0,0,0-0.1l-0.1-0.1l0,0l0.5-0.8h1.2c0,0,0,0,0.1,0c0,0,0,0,0-0.1l0,0v-0.1
	l0,0l0,0v-0.2l0,0l0,0l0,0h-0.1l0,0l-0.1-0.2l0,0l-0.1-0.1l0,0h-0.2l-0.3-0.2h0.2c0,0,0.1,0,0.1-0.1v-0.5l1.7-0.2c0,0,0.1,0,0.1-0.1
	v-0.1h0.1h0.1h0.1l0.2-0.3l0,0V244l0.1-0.1H75h0.1l0,0l0.1-0.1l0,0l0.1-0.2l0,0v0.3c0,0,0,0,0,0.1l0.1,0.1l0.1,0.1l0,0l0.1,0.1l0,0
	h0.1c0,0,0,0,0.1,0l0,0l0,0v-0.2v-0.2v-0.1l0.1-0.6c0,0,0,0,0-0.1c0,0,0,0-0.1,0h-0.1l0.1-0.1l0,0v-0.1l0,0v-0.1c0,0,0-0.1-0.1-0.1
	h-0.1l0,0l0,0v-0.1l0.1-0.1l0,0v-0.1l0,0v-0.1v-0.2l0.2-0.3l0.1-0.3l0,0v-0.1L76.3,240.4L76.3,240.4z"/>
<g>
	<path class="st0" d="M457.5,236.8c0,10.6-8.6,19.2-19.1,19.2c-10.6,0-19.1-8.6-19.1-19.2c0-10.6,8.6-19.2,19.1-19.2
		C449,217.6,457.5,226.2,457.5,236.8z"/>
	<path d="M438.4,256.6c-10.9,0-19.8-8.9-19.8-19.8c0-10.9,8.9-19.8,19.8-19.8s19.8,8.9,19.8,19.8
		C458.2,247.7,449.3,256.6,438.4,256.6z M438.4,218.3c-10.2,0-18.4,8.3-18.4,18.5s8.3,18.5,18.4,18.5c10.2,0,18.4-8.3,18.4-18.5
		C456.9,226.6,448.6,218.3,438.4,218.3z"/>
</g>
<path class="st1" d="M444.6,247.1l-0.5,0.3h-0.5c0,0,0,0-0.1,0l-0.2,0.2l-0.2-0.2l0,0h-0.2l0,0l-0.3,0.2h-0.7l0,0l-0.5,0.3h-0.5
	l-1-0.5l-0.3-0.3c0,0,0,0-0.1,0H439l0,0l-0.4,0.2v-0.1l0,0l-0.2-0.2h-0.1l-0.3,0.2h-0.2c0,0-0.1,0-0.1,0.1v0.5l-0.3,0.2
	c0,0,0,0,0,0.1v0.3c0,0,0,0,0,0.1l0.3,0.3l0.5,0.3l0,0h0.2l0.3,0.2l0,0l0.7,0.3l0.2,0.2l0.3,0.5c0,0,0,0,0.1,0h0.5l0.2,0.2l0,0h0.5
	l0.5,0.2v0.2l0,0l0.3,0.5l0,0l0.5,0.2l0,0l0,0l0.2-0.2l0.5,0.2c0,0,0,0,0.1,0c0,0,0,0,0-0.1V251l0.5-0.2c0,0,0,0,0-0.1v-0.5
	c0,0,0-0.1-0.1-0.1h-0.1l0.1-0.1c0,0,0,0,0-0.1c0,0,0,0-0.1,0h-0.2v-0.4l0.2-0.2c0,0,0,0,0-0.1v-0.8l0.2-0.2h0.2h0.1l0.3-0.5l0,0
	v-0.5C444.7,247.2,444.7,247.2,444.6,247.1L444.6,247.1z M451.5,241.8l-0.5-0.2l-0.2-0.5l0,0l-0.3-0.3l0,0l-0.5-0.3l0,0h-0.5
	l-0.2-0.2L449,240l0,0l-0.8-0.3l-0.2-0.2l-0.3-0.3c0,0,0,0-0.1,0h-0.7l-0.2-0.2l0,0l-0.5-0.3l0,0H446l0.1-0.1h0.2l0,0l0.3-0.3
	c0,0,0,0,0-0.1v-0.5v-0.1l-0.8-0.2l0,0h-1.5l-0.5-0.2l-0.3-0.5l-0.2-0.3l-0.5-0.5l-0.3-0.5l-0.5-0.5v-0.5l0.2-0.2v-0.1l-0.2-0.5
	l-0.3-0.5v-0.2l0,0l-0.2-0.2v-0.5c0,0,0-0.1-0.1-0.1h-0.3l-0.5-0.3l-0.5-0.3l0,0h-0.2l-0.5-0.2V231c0,0,0,0,0-0.1l-0.2-0.2v-0.2l0,0
	L439,230l0.2-0.2l0,0v-0.5l0.5-0.5c0,0,0,0,0-0.1v-0.3c0,0,0-0.1-0.1-0.1h-0.2l-0.2-0.2V228c0,0,0-0.1-0.1-0.1H439l0.1-0.1h0.2
	c0,0,0.1,0,0.1-0.1v-0.4h1.2c0,0,0,0,0.1,0l0.2-0.2h0.2c0,0,0.1,0,0.1-0.1v-0.2h0.4v0.2c0,0,0,0,0,0.1l0.3,0.3h0.1c0,0,0,0,0-0.1
	v-0.4h0.2c0,0,0,0,0.1,0l0.2-0.3v-0.1l-0.2-0.2l-0.2-0.2l0.4-0.2c0,0,0,0,0-0.1v-0.2l0,0l-0.2-0.3v-0.5c0,0,0-0.1-0.1-0.1H442
	l-0.3-0.2l0,0h-1.3l-0.2-0.2L440,224v-0.2l0,0l-0.2-0.3l-0.3-0.3l0,0h-1.2L438,223l0,0h-0.3c0,0-0.1,0-0.1,0.1v0.2l-0.4,0.2h-0.4
	V223c0,0,0-0.1-0.1-0.1H436c0,0-0.1,0-0.1,0.1v0.7h-0.1l-0.2-0.2h-0.1l-0.3,0.3l-0.3,0.2l0,0c0,0,0,0,0,0.1l0.2,0.2l-0.2,0.1
	l-0.2-0.2l0,0H434V224c0,0,0,0,0-0.1l-0.3-0.2l0,0h-0.3c0,0-0.1,0-0.1,0.1v0.7h-0.2c0,0,0,0-0.1,0l-0.5,0.5c0,0,0,0,0,0.1v0.1
	l-0.1-0.1l-0.2-0.3l-0.2-0.2v-0.5c0,0,0,0,0-0.1l-0.3-0.2l0,0h-0.3l0,0l-0.3,0.2c0,0,0,0,0,0.1v0.3l-0.2,0.5h-0.7l-0.2-0.2
	c0,0,0,0-0.1,0l-1,0.3h-0.2c0,0-0.1,0-0.1,0.1v0.2h-0.2c0,0-0.1,0-0.1,0.1v0.2l0,0l0.2,0.3v0.2l0,0l0.2,0.2l-0.2,0.2l-0.3,0.2
	L428,227h-0.8c0,0-0.1,0-0.1,0.1v0.2c0,0,0,0,0,0.1l0.3,0.3c0,0,0,0,0.1,0h0.2l0.2,0.2v0.5l-0.2,0.2c0,0,0,0,0,0.1v1l0,0l0.3,0.5
	c0,0,0,0,0.1,0h0.7l0.2,0.2l-0.2,0.2l0,0v0.2l-0.2,0.3l-0.3,0.2v0.1h0.1l0.5-0.2l0,0l0.2-0.3h0.5l0,0l0.5-0.2l0,0l0.3-0.3
	c0,0,0,0,0-0.1v-0.2l0.2-0.2l0.2-0.2h0.7l0.5,0.5c0,0,0,0,0.1,0c0,0,0,0,0.1,0l0.2-0.2l0.7,0.5c0,0,0,0,0.1,0c0,0,0,0,0-0.1v-0.2
	l0.2-0.2h0.3l-0.1,0.1l0,0v0.3c0,0,0,0,0,0.1l0.2,0.2l-0.2,0.2c0,0,0,0,0,0.1c0,0,0,0,0,0.1l0.5,0.5l0.3,1l0.2,1l0,0l0.2,0.3
	l0.5,1.3c0,0,0,0,0.1,0h0.2l0.5,0.5l0.2,0.5l0,0l0.3,0.2l0.2,0.3l2.3,2.3c0,0,0,0,0.1,0h0.2l0.2,0.5c0,0,0,0,0.1,0h0.5l0.2,0.5
	c0,0,0,0,0.1,0c0,0,0,0,0.1,0l0.2-0.2l0.7,0.7l0.3,0.3l0.2,0.2l0,0h0.2l0.5,0.5c0,0,0,0,0.1,0h0.2l0.2,0.2v1v0.1l0.5,0.3l0,0h0.5
	l0.5,0.2l0.2,0.2v0.2c0,0,0,0,0,0.1l0.2,0.2l0.2,0.8l0.3,0.8v0.7l-0.2,0.2h-0.5c0,0-0.1,0-0.1,0.1v1l-0.2,0.3l-0.3,0.2
	c0,0,0,0,0,0.1v0.3c0,0,0,0,0,0.1l0.3,0.2l0,0h0.7l0,0l0.3-0.2h0.2c0,0,0.1,0,0.1-0.1v-0.2l0.5-0.2c0,0,0,0,0-0.1v-0.7l0.2-0.2
	l0.2-0.3l0.2-0.2h0.8c0,0,0.1,0,0.1-0.1v-1.8c0,0,0,0,0-0.1l-0.3-0.2h-0.1l-0.4,0.2l-0.2-0.4l-0.1-0.7l0.1-0.4h0.2
	c0,0,0.1,0,0.1-0.1v-0.2l0.2-0.2v-0.1c0,0,0,0-0.1,0h-0.1l0.4-0.4h0.4v0.2v0.1l0.5,0.3l0,0h1v0.4l0,0l0.2,0.2v0.2l0,0l0.3,0.3
	c0,0,0,0,0.1,0h0.5c0,0,0,0,0.1,0l0.3-0.3l0,0L451.5,241.8C451.6,241.8,451.6,241.8,451.5,241.8z"/>
<path class="st5" d="M322.1,294.1c-24.7,0-43.9-6.7-43.9-12.2c0-5.1,18.5-11.2,42.4-11.2c23,0,41.8,5.2,41.8,12.2
	C362.4,289.4,345.6,294.1,322.1,294.1z"/>
<g>
	<path d="M250.8,288.5c0-1.7-1.1-3.2-3.4-3.2c-2.6,0-4,1.5-4,3.4c0,1.7,1.4,3.3,3.9,3.3C249.7,292.1,250.8,290.7,250.8,288.5z
		 M245.4,288.7c0-0.8,0.9-1.5,1.9-1.5c0.9,0,1.4,0.7,1.4,1.5c0,1-0.6,1.6-1.3,1.6C246.2,290.3,245.4,289.9,245.4,288.7z"/>
	<path d="M244.7,303.8c0,1.6,1.5,3.7,3.8,3.7c2.2,0,3.7-2.1,3.7-4.1c0-1.7-1.4-3.5-3.7-3.5C246.1,300,244.7,302,244.7,303.8z
		 M250.3,303.6c0,0.9-0.8,1.9-1.8,1.9c-1.1,0-1.9-0.6-1.9-1.8c0-0.8,0.7-1.8,2-1.8C249.5,301.9,250.3,302.6,250.3,303.6z"/>
	<path d="M248.7,314c-2.5,0-4.1,2.5-4.1,4.2c0,2,1.6,3.8,4.1,3.8c2.4,0,3.8-2.3,3.8-4.2C252.6,316,251,314,248.7,314z M248.7,320.1
		c-1.2,0-1.9-0.8-1.9-1.7c0-1.2,0.7-2.1,1.9-2.1c1.1,0,1.9,0.7,1.9,1.7C250.5,319.1,249.8,320.1,248.7,320.1z"/>
	<path d="M370.6,283.9c0-12.3-25.4-18.7-50.5-18.7c-9.1,0-17.2,0.8-24.1,2.1c-1.9-1.3-4.2-3.2-5.3-4.8c5.3-0.5,10.4-3.3,13.4-7.7
		c1-1.5,0.7-1.7-0.7-2.6c-2.9-1.7-5.5-4.8-9.3-6.8c4.9-7.5,8-9.4,9.1-10.9c1.1-1.6,0.5-2.4-1.1-2.4c-0.7,0-5.6-0.5-6.6-0.9
		c2.4-2.4,5.4-10.2,6-16.1c0.2-2.4,0-3.6-1.7-4.7c-2.6-1.8-6.3-3.7-10.2-4.4c-1.6-2.7-1.5-6.1-0.8-10.2c0.9-4.6,1.1-6.2-1.5-10
		c-1.1-1.7-1.2-2.8-0.7-5.3c0.5-2.6,1-3.8,0.6-6.5c8.9,0.5,20.2-1.9,25.2-9.9c1.2-1.9,2.3-2.7,4.4-3.6c1.4-0.6,6-2.3,7.4-2.8
		c2.2-0.9,3.6-2.2,4.2-4.3c1.9-7.1,0.8-18.6-2.4-25.1c-1.7-3.5-4.2-4.1-8.6-4.1c-0.7-3-1.8-5.4-4.9-7.2c-5.3-3-13.7-2.2-22.3-0.8
		c-1.6,0.3-4.7,0.5-6.1,0.4c-4-0.4-9.2-0.9-13.6-1.3c-2.4-0.2-3.7-1.2-5.1-2.9c-9.6-11.9-21.9-12.1-39.6-5.8c-1.6,0.6-2.2,1-3.7,0.5
		c-2.2-0.7-3.9-0.6-5.8,0.7c-1.7,1.1-4.5,4.2-6.3,6.6c-8.1,1.4-21.9,6.3-28.1,11.9c-2.3,2.1-2.7,3.1-3.1,5.9
		c-0.5,3-0.8,12.3-0.5,15.3c0.3,2.8,0.6,4,2.1,5.6c5.7,6,11.7,8.1,16.3,7.4c0.7-0.1,1.1,0.5,1.3,0.9c1,2.1,2.5,4,4.5,4.9
		c-0.3,1.9-1.1,8.3-1.1,9.4c0,2.5,0.1,3.2,0.9,4.7c-5.2,5.6-5.3,7.5-3.3,17.4c-2-0.3-7.7,0.7-10.3,1.7c-1.5,0.6-2.4,1.1-3,3.3
		c-2,7.4-0.4,16.8,7.3,25c3.3,3.6,6.4,6.7,8.2,10.6c0.5,1.1,1.1,2.1,1.7,3.1c-1.1,1.5-1.2,4.1-0.6,5.9c-3.1,0.5-3.6,3.9-3.1,6
		c-1.6-0.6-3.5,0.4-5.7,2.4c-4.2,3.7-8.4,7.9-13.5,11.4c-0.9-0.4-1.8-0.4-3-0.2c-1.1,0.2-1.4,0.2-1.9-0.2c-1-0.7-2.1-0.6-3.4,0.1
		c-1,0.6-2.2,0.5-3.4,0.1c-1.5-0.4-3.2-1.3-4.7-0.3c-0.9,0.6-1.7,0.5-2.7,0.2c-3.2-1-6.3-1.6-7.5-0.2c-0.5,0.6-1,0.6-1.9,0.3
		c-2.6-0.8-8.4,0.5-8.4,4c0,0.1,0,0.1,0,0.2c-3.3-0.5-6-0.9-10.6-0.4c-4.6,0.4-7.7,3.3-7.6,7.1c-5.1,1.1-7.4,3.5-7.4,6.4
		c0,0.5,0.1,1,0.2,1.5c0.2,4.9,1.9,7.9,6.3,9.6c2.5,0.9,5.5,1.8,8.8,2.4c1.6,4.5,6.9,8.4,11.6,5.7c2.4,1.9,5.8,2.2,9.1,0.5
		c0.7,0.3,1.4,0.5,2.3,0.5c3.8,0.2,6.9-1.7,12-3.7c4.5,0,8.9-0.1,12.9-0.4c-0.2,4.9,1.1,17.1,2.2,21.2c0.4,1.6,0.9,2.2,2,2.6
		c2.6,1.1,4.8,2.6,7.3,5.4c5,5.6,8.9,15.2,8.9,19.3c0,4.2-3.9,5.1-3.3,11.2c-1.2-0.1-2.4-0.2-3.6-0.2c-11.7,0-17.7,7.2-17.7,13
		c0,0.5,0,1,0.2,1.5c-2.3,1.9-2.9,4.6-0.3,6.7c5,4.3,20.3,7.3,29.4,7.3c10.4,0,18-2.8,23.6-7.6c0.3-0.2,0.5-0.4,0.9-0.3
		s1.4,0.1,2.1-0.1c2.1-0.4,9.2-3.7,10.8-4.7c2.9,1,11.7,2.9,14.4,3.3c1,0.2,2.2,0,2.7-0.3s0.9-0.2,1.4,0.2
		c8.7,6.9,13.7,12.3,32.1,12.3c15.6,0,21.9-5.9,21.9-9.8c0-1.6-0.5-3.2-1.3-4.3c0.1-0.5,0.1-1,0.1-1.5c0-8.1-8.5-13.2-22.6-14.2
		c-0.1-3.3-1.9-7.3-4.2-8.6c-0.4-0.2-0.4-0.5-0.2-0.8c1.7-2.6-0.3-7.6-2.1-8.3c0.8-0.5,1.5-1.5,2-2.6c0.4-1,4.4-9.8,5.2-11.6
		c2-0.4,3.7-0.8,5-1.2c2.3-0.7,3.2-1.8,3.7-3.3c2.2-7.4,2.6-16,2.3-23.9c2.1,0.2,4.3,0.4,6.6,0.6c5.4,2.4,8.5,4.6,12.5,4.6
		c0.9,0,1.6-0.1,2.3-0.4c3.2,1.9,6.7,1.7,9.1,0c4.4,2.9,9.8-0.6,11.7-4.9C361.3,298.6,370.6,293.7,370.6,283.9z M300.1,234.2
		c-5.8,5.4-9.9,15.3-12.6,17c-0.9,0.6-0.3,1.3,0.6,0.9c1.8-0.7,3-2.1,4.6-4.5c3.7,1.6,4.9,3,6.7,4.5c-0.9,0.2-1.5,0.9-1.5,1.8
		c0,0.9,0.7,1.7,1.5,1.8c-1.5,1.4-3.1,2.5-4.9,3.2c0-0.1,0-0.2,0-0.3c0-1-0.8-1.9-1.9-1.9c-1,0-1.9,0.8-1.9,1.9
		c0,0.5,0.2,0.9,0.5,1.3c-2.2,0.4-4.6,0.3-7-0.5c1-0.1,1.8-0.9,1.8-1.9s-0.8-1.9-1.9-1.9c-1,0-1.9,0.8-1.9,1.9c0,0.5,0.2,1,0.6,1.3
		c-1.4-0.6-2.7-1.4-4.1-2.4c1.6-1.1,2.9-2.1,4-2.5c1.3-0.5,1-1.5-0.3-1.2c-4.1,1-6.6,3.7-11,5.1c1.7-1.4,2.3-2.9,2.9-4.4
		c0.1-0.1,0.1-0.2,0.1-0.4c0.4-0.3,0.6-0.8,0.6-1.4c0-0.7-0.4-1.4-1.1-1.7c3.9-2.8,4.7-6.7,6.9-9c2.7-2.8,5.6-4.2,8.1-5.5
		c0.3,0.5,0.9,0.8,1.5,0.8c1,0,1.9-0.8,1.9-1.9c0-0.3-0.1-0.6-0.2-0.9l0.1-0.1C293.1,233.7,298.5,234,300.1,234.2z M205,221
		c-0.4-0.4-0.9-0.3-1.5,0.2c-0.5,0.5-1.8,1.6-2.3,2.4c0-0.5,0.3-1.6-0.1-1.8c-0.4-0.2-1-0.1-1.4,0.6c-0.4,0.7-1,2.1-1.3,3
		c-2.6-1.8-5.1-5.1-4.1-9c0.3-1.4,1.1-2.2,1.8-1.9s0.4,1.8,0.1,2.7c-0.4,1.2,0.8,2.1,1.9,0.9c0.5-0.6,2.5-3.6,3.4-4.7
		c-0.2,4.2,1,5,2.8,3.6c0.8-0.6,4-4.2,4.7-5.2c2.2-3.7,2.2-7.2,3.8-9.6c1.6-2.5,7.4-8.4,9.8-9.7c3.1-1.7,8.4,0.1,10.9,1.5
		c1.3,0.7,1.8,0.7,2.7,0.1c0.5-0.3,1.2-1,1.6-1.4c0.5-0.5,0.6-1.2,0-2.3c-0.2-0.5-0.8-1.2-1.4-1.9c5.3-2.9,8.6-2.6,13.6-1.3
		c2,0.5,2.7-1,1.2-1.7c-5.1-2.5-10.9-2.2-16.6,1c-1.4-1.4-3-2.9-4.1-3.6c-1.4-1-2-1.3-4-1.2c-1.2,0-6.3,0.6-7.9,0.8
		c-1.6,0.2-2.5,0.6-3.2,1.2c-0.7,0.6-1,1.3-0.7,2s0.1,1.4-0.6,2c-1.6,1.2-2.2,2.6-1.8,4.5c-3.7,3.6-6.5,6.4-9.8,6.3
		c-3.3-7.3-2.6-10.9,1.2-15c3.5-3.9,3.8-4.3,5-8.6c1.1-4.1,1.4-5.1,3.9-6.9c1.4-1,0.7-2.6-1-1.9c-2,0.8-4.7,3.5-5.6,6.9
		c-0.5,1.7-0.8,2.9-1.2,3.9c-0.7-2.5-0.7-6,0.2-8.9c0.7-2.3,1.8-2.7,3.9-4.7c1.2-1.2-0.1-2.9-1.3-1.8c-0.9,0.9-2.5,2.2-3.5,2.8
		c-0.4,0.3-0.8,0.5-1,0.7c-1.2-0.6-2.8-2-3.5-3.9c-0.5-1.3-1.3-2.4-3.1-2.3c-4,0.2-9.9-1.5-14.5-6.5c-1.2-1.4-1.3-1.8-1.6-4.7
		c-0.4-4.2-0.3-10.2,0.3-14.8c0.3-2.2,0.9-3.5,2.3-4.7c6.9-5.8,18.8-9.9,25.4-11.2c-0.2,0.3-0.3,0.6-0.3,0.8
		c-0.4,1.5,0.5,1.8,1.5,0.9c0.2-0.2,1.1-0.7,2-1.7c2.2-2.3,3.5-4.3,6-6.6c1.2-1.1,2.3-1,3.5-0.5c1.4,0.7,3.4,0.2,5.3-0.6
		c15.9-6.3,29.5-5.3,37.5,5.2c-0.6,0.6-1.2,1.1-1.6,1.5c-0.7,0.8-0.1,1.8,1.1,1.3c1.5-0.6,3.4,0.3,5.6,0.9
		c3.2,0.8,11.5,0.9,14.8,1.1c3,0.2,4.7,0.1,6.8-0.3c6.8-1.2,16.6-2,20.9,0.5c4.1,2.4,3,7.3,4.8,10.5c1.1,1.9,2.3,1.5,1.9-0.5
		c-0.1-0.7-0.2-1.4-0.4-2c2.8-0.1,4.4,0.6,5.7,2.8c3.4,5.9,4.5,14.7,3,21.1c-0.6,2.4-1.4,3.4-3.4,4.1c-1,0.3-5.9,1.8-7.3,2.3
		c-4.4,1.5-3.7,2.3-6.1,5.5c-4.7,6.4-13.8,9-23.2,8.2c-0.5-1.7-1.2-4-1.8-5.5c4.7,1,10.4,0.4,14.5-1.7c3-1.5,1.3-3.2-1.6-2.2
		c-3.7,1.2-9.2,3-13.9,1.7c-1-1.8-2.4-3.2-4.4-3.5c-1.4-0.2-2.2,1.2-0.6,2.3c1.3,0.8,1.8,1.2,2.6,3c0.8,1.8,2.4,6.6,3,8.7
		c0.8,2.8,0.8,3.5,0.3,6.1c-0.7,3.2-0.5,4.4,1.1,6.7c2.3,3.3,2,5,0.8,8.9c-1.3,4.4-1.8,6.8-1,10.1c-1.7-0.1-3.5-0.3-4.8-1.2
		c-1.2-0.8-1.2-2.8-4.7-5.3c-0.5-2.6-0.3-6.7,0.1-9.2c0.3-2.2-0.6-4-2.9-4.8c-1.3-0.4-7.9-1.7-9.7-1.9c-2.3-0.3-3.9-0.1-5.5,0.8
		c-1.7,1-4.8,4.7-5.7,6.2c-0.8,1.4-0.7,1.9-0.1,2.7c0.5,0.6,1.1,0.8,2.1,0.8c2.6,0,7.2,0.4,10.4,1.3c5.7,1.6,7.6,3.4,9.8,7.9
		c2.7,5.7,1.9,7.8,0.5,11.6c-0.4,1.1-0.3,2,0.2,2.5c1.6,1.3,3.7,5.3,4.1,7c0.2,0.7,0.2,1.3,1,1.5c0.7,0.2,1.1,0.1,1.5-0.7
		c1.5-3.2,1.4-3.8,2.7-3.8c1.8,0,3.4,2,3.4,5c0,2.8-1.9,6.8-4.3,8.3c0.1-0.9,0-3.8-0.4-4.7c-0.8-2.3-2.1-1.2-2.2,0.3
		c-0.5,6.6-2.4,9.5-6.4,16c-1.4,2.2-2.8,3-5.2,4.1c-15.6,7.3-21.1,12.8-29.9,12.8c-3.8,0-10-4.1-17.9-8.8
		c-9.1-5.4-19.9-13.2-19.9-22c0-3.4,1.5-7.7,3-9.8C205.4,221.7,205.5,221.5,205,221z M195,257.5c2-1.1,3.5-1.6,5.2-0.5
		c2.5,1.7,4.1,4.9,5.7,6c0.2,0.9,0.9,1.5,1.8,1.5c1,0,1.9-0.8,1.9-1.9s-0.8-1.9-1.9-1.9c-0.3,0-0.6,0.1-0.9,0.2
		c-1.5-1.5-7.5-7.3-5-10.3c0.6-0.8,1.6-0.9,2-0.4c0.8,0.8,0.3,1.5-0.2,2.2c-0.8,1,0.5,1.9,1.5,1.4c0.7-0.4,1.3-2.2,0.8-3.3
		c-0.8-2-1.6-3.8-0.7-5.5c1.6,1.6,3.4,3.3,5.7,4.9c-1,0-1.8,0.9-1.8,1.9s0.8,1.9,1.9,1.9c1,0,1.9-0.8,1.9-1.9c0-0.2,0-0.4-0.1-0.5
		c2.2,1.5,4.8,3.2,7.8,5c1.9,1.1,3.5,2.1,5,3.1c-1,0.1-1.7,0.9-1.7,1.9s0.8,1.9,1.9,1.9c1,0,1.9-0.8,1.9-1.9c0-0.3-0.1-0.5-0.2-0.7
		c1,0.6,1.9,1.2,2.8,1.7c-0.7,0.3-1.2,0.9-1.2,1.7c0,1,0.8,1.9,1.9,1.9c1,0,1.9-0.8,1.9-1.9c0-0.1,0-0.2,0-0.3
		c2.4,1.3,4.3,1.9,6.1,1.9c3.5,0,7-1.1,10.5-2.6c0.3,0.7,0.9,1.2,1.7,1.2c1,0,1.9-0.8,1.9-1.9c0-0.4-0.1-0.7-0.3-1
		c0.8-0.4,1.5-0.8,2.2-1.2c0,0.1,0,0.2,0,0.3c0,1,0.8,1.9,1.9,1.9c1,0,1.9-0.8,1.9-1.9c0-0.8-0.5-1.4-1.1-1.7c1.9-1,3.7-2.1,5.4-3
		c3.5-1.8,6.1-2.7,8.4-3.8c0,0.1,0,0.1,0,0.2c0,0.9,0.6,1.6,1.5,1.8c-1,1.7-2.5,3-4.2,4.3c0-0.1,0-0.2,0-0.3c0-1-0.8-1.9-1.9-1.9
		c-1,0-1.9,0.8-1.9,1.9c0,0.9,0.7,1.7,1.5,1.8c-1.6,1.1-3.3,2.2-4.6,3.5c-3.5,3.4-7.5,7.5-12,10.9c0-0.1,0-0.2,0-0.4
		c0-1-0.8-1.9-1.9-1.9c-1,0-1.9,0.8-1.9,1.9c0,0.9,0.7,1.7,1.6,1.8c-4.2,2.8-8.8,4.8-13.9,5.1c0.1-0.3,0.2-0.6,0.2-0.9
		c0-1-0.8-1.9-1.9-1.9c-1,0-1.9,0.8-1.9,1.9c0,0.3,0.1,0.6,0.2,0.8c-2.8-0.2-5.4-0.6-7.9-1.3c1,0,1.8-0.8,1.8-1.9
		c0-1-0.8-1.9-1.9-1.9c-1,0-1.9,0.8-1.9,1.9c0,0.7,0.3,1.2,0.8,1.6c-8.7-2.6-16.3-7.8-24.4-13c-1.8-1.1-3.5-2-5.3-2.4
		c0.5-0.3,0.8-0.9,0.8-1.5c0-0.7-0.4-1.4-1-1.7C193.2,259,194.6,257.7,195,257.5z M189.3,262.8c0.1,0.2,0.2,0.4,0.4,0.6
		c-0.4,0-0.8,0.1-1.2,0.2C188.6,263.4,188.9,263.1,189.3,262.8z M145.7,270.2c1.3-1,3.3-1.4,5-1.1c1.5,0.3,1.9,0.4,3.4-0.6
		c1.9-1.4,4.3,0.1,6.1,0.5c1.6,0.4,2.5,0.3,3.8-0.3c1-0.5,2.1-0.4,3.4,0.1c1.4,0.6,3.4,0.6,4.5,0c0.8-0.4,1.7-0.6,2.4-0.1
		c0.6,0.5,1.6,0.4,2.8,0.3c1.3-0.2,2-0.2,3,0.7c1.4,1.2,3.3,1,5.2,0.3s2.8-0.9,3.7,0.3c0.7,1,1.7,1.3,3.5,1c1.5-0.2,2.3,0.2,2.7,1
		c0.5,1.1,0,1.4-0.9,1.8c-1.5,0.5-1.3,2-0.5,2.8c1.2,1.2,0.5,2.1-0.5,1.8c-0.4-0.1-1.5,0-1.8,0.2c-0.7,0.4-1.6,0-1.8-0.9
		c-0.4-1.9-2.5-2-3.6-0.3c-0.9,1.2-1.7,2.3-2.9,2.6c-1.8,0.6-2-1-1.2-1.6c1.7-1.4,3.1-3.5,1.2-4.6c-0.8-0.5-2.3-0.6-2.8,1.5
		c-0.3,1.1-0.8,1.3-1.6,1.1c-0.7-0.2-0.9-0.6-1-1.4c-0.1-1-1.7-1.5-2.2-0.6c-0.1,0.2-0.5,0.3-0.8,0.1c-1.4-1.1-2.8,0.5-2.1,2.1
		c0.3,0.6,0.8,1.9,0.5,2.2c-0.6,0.6-1.5,0.2-2.3-0.5s-0.5-1.4-1.7-1.8c-0.7-0.2-1.3-0.2-1.6,0.1c-0.3,0.3-0.7,0.4-0.9-0.5
		c-0.2-1.1-0.4-1.6-1.3-1.8c-1.2-0.3-1.9,0.4-2.4,1.3c-0.5,0.8-1.3,2.5-2.3,3.4c-0.8,0.7-1.6,0.9-2.2,0.4c-0.7-0.7,1-2.5,2.3-3.5
		c0.8-0.6,1-1.9,0.4-2.5s-1.5-0.5-2.2,0.1c-0.5,0.4-1.9,1.6-2.3,1.9c-0.6,0.6-0.9,0.4-1-0.3c-0.2-1.6-1.8-1.4-2.6-0.7
		c-0.4,0.4-1.7,1.5-2.2,1.8c-1.2,0.5-1.6-0.2-1-0.9c0.3-0.4,1.2-1,1.5-1.4c1.1-1.2,0.1-2.7-2-2.6c-0.5,0-2.4,0.3-2.8,0.3
		C145.4,271.9,144.6,271,145.7,270.2z M195.7,276.4c-0.5-0.6-0.5-0.9,0.5-1.2c0.2,0,0.3-0.2,0.5-0.3c2.5,1,3.6,3.4,3.6,4.7
		c0,4.6-2.4,9.1-12.9,9.5c-12.4,0.5-33.5-1-44.8-2.5c3.3-1.5,5-3.8,5-6.3c0-1.3-0.8-2.7-2.9-4.6c-0.9-0.8-1.1-1.7-0.4-2.4
		c1,0.6,2.4,0.8,3.6,0.6c0.6-0.1,0.7,0.3,0.5,0.6c-0.7,0.8-0.6,2.4,0.3,3.3c1.5,1.4,4,0.1,5.4-1.2c0.3,1.2,1.4,1.6,2.7,1
		c-0.8,1.1-1,2.9,0.1,3.6c2.4,1.6,5.5-0.1,7.3-3.7c0.4-0.9,0.8-0.8,0.9,0.1c0.2,1.6,1.4,2,2.5,1.4c0.5-0.3,1-0.1,1.2,0.4
		c0.8,1.5,3.6,2.8,5.4,1.6c1-0.7,0.9-3.2,0.4-4c0.3,0.1,1.2,0.1,1.4-0.3c0.2,1.7,2.3,2.4,3.8,2c-1,5.3,5.4,4,7,1.2
		c0.6-1,1-0.8,1.3-0.1c0.3,0.9,1.4,1.2,2.2,1c0.6-0.2,1.9-0.4,2.6-0.2C195.5,281.4,197.2,278.1,195.7,276.4z M202.3,280.2
		c3,0.7,5.3,3.5,5.3,5.1c0,6-13.1,9.5-39.4,9.5c-21.3,0-36.6-2.6-43.9-5.8c0.5,0,1.1-0.2,1.7-0.4c0.9-0.4,2-0.4,3.1,0.2
		c1.8,1,3.2,0.7,4.9-0.5c1.6-1.2,1.7-0.8,5.5,0c7.9,1.6,39.9,2.9,47.9,2.9C197.6,291.2,202,286.9,202.3,280.2z M127.4,282.2l0.2,0.4
		c0,0.2-0.1,0.4-0.1,0.6c-0.2,0.5-0.9,1-1.5,0.8c-0.3-0.1-0.5-0.6-0.8-0.6c0-0.3,0-0.4,0.2-0.6c0.2-0.1,0.5-0.1,0.7-0.2
		s0.4-0.3,0.7-0.5C127,282,127.1,282.1,127.4,282.2z M132.4,277.8c-0.4,0.4-1,0.3-1.4,0.6c-0.2,0.2-0.5,0.4-0.6,0.7
		c-0.2,0.5-0.4,0.9-1,0.8c-0.3,0-0.5-0.1-0.5-0.4c0-0.5,0.7-1,1.1-1.3c0.2-0.2,0.7-0.4,0.6-0.8c0.3-0.1,0.3,0.1,0.5,0.2
		s0.4,0.1,0.6,0c0.2-0.1,0.4-0.4,0.6-0.3C132.7,277.4,132.5,277.7,132.4,277.8z M133.1,282.6c0.2-0.1,0.6-0.4,0.8-0.2
		c0.4,0.3-0.1,0.6-0.3,0.8c-0.3,0.2-0.7,0.5-1,0.7s-0.9,0.6-1.2,0.4c-0.4-0.2-0.5-0.7-0.3-1.1c0.2-0.5,0.5-0.8,0.9-0.9
		C131.9,282.8,132.8,282.7,133.1,282.6z M142.1,279.6c0,0.3-0.1,0.5-0.2,0.7c-0.2,0.3-0.3,0.3-0.6,0.2c-0.2-0.1-0.3-0.1-0.4-0.2
		c-0.1-0.1-0.3-0.2-0.4-0.3c-0.3-0.3,0.2-0.7,0.5-0.8c0.3-0.1,0.4,0,0.6,0.1C141.5,279.4,142.1,279.7,142.1,279.6z M140,277.1
		c-0.4,0-1,0.1-0.8-0.5c0.2-0.5,0.7-0.5,1.2-0.6c0.3,0,1-0.1,1.2,0.2C141.8,276.8,140.4,277.1,140,277.1z M139.5,283.2
		c-0.3,0.1-0.6,0.2-0.9,0.3c-0.2,0.1-0.4,0.3-0.7,0.2c-0.2-0.1-0.4-0.5-0.4-0.7c-0.1,0-0.2-0.2-0.2-0.2c0.6-0.1,0.9-0.7,1.5-0.7
		C139.3,282.3,139.6,282.8,139.5,283.2z M137.6,279.3c-0.1,0.4-0.8,0.3-1.2,0.4s-0.5,0.4-1,0.3c-0.3,0-0.6-0.1-0.7-0.4
		c-0.3-0.4,0.1-0.7,0.5-0.9c0.2-0.1,0.5-0.4,0.7-0.3c0.1,0,0.2,0.2,0.3,0.3c0.2,0.1,0.4,0.1,0.6,0.2
		C137.1,278.9,137.8,278.7,137.6,279.3z M132.4,272.9c2.9-0.5,6.8-0.3,9.2,0c-0.2,0.3-0.4,0.7-0.5,1c-0.9,0.1-1.5,0-2.4,0.7
		s-1.7,0.8-2.3,0.3c-0.7-0.6-2.5-0.7-3.3,0.2c-0.7,0.8-1.2,0.9-2.1,0.6c-0.8-0.3-1.9,0-2.9,1.1c-0.5,0.6-1,1.1-1.6,1.6
		C126.2,276.3,127.7,273.7,132.4,272.9z M120.9,281.9c-0.5,1-0.3,2.2,0.3,2.8c0.5,0.5,1.1,0.6,0.9,1.5c-0.2,0.7-0.2,1.2,0,1.6
		c-1.7-1-2.6-2.1-2.6-3.2C119.5,283.5,120,282.6,120.9,281.9z M120,289.4c8,6.1,30.8,7.5,48.3,7.5c17.9,0,30.6-1.6,36.8-5.2
		c-0.7,2.1-3.4,3.3-7.3,4.4c-17.7,4.6-61.2,3.2-73.2-2.2C121.7,292.5,120.5,291.2,120,289.4z M134.7,298.3c2.1,0.4,4.4,0.7,6.7,1
		c0.3,1,0.7,1.9,1.2,2.7C139.2,303.4,136,301,134.7,298.3z M143.4,299.5c2,0.2,4.1,0.4,6.1,0.6c0.4,1.1,1,2,1.8,2.7
		C147.8,304.3,144.4,303,143.4,299.5z M155.4,302.8c-1.7-0.1-2.9-1-3.3-2.5c3.3,0.2,6.6,0.4,10,0.4
		C159.6,301.9,157.6,302.9,155.4,302.8z M182.7,300.2c6.7-0.5,12.3-1.3,15.7-2.4c6.6-2.1,8.7-3.5,10.1-9.3c0.6-1,0.9-2,0.9-3.2
		c0-3.1-3.5-6.7-7.4-7.4c-0.6-1.8-2.1-3.8-4.9-4.8c0-0.4,0-0.9-0.2-1.2c-0.6-1.5-2.2-2.5-4.1-2.3c-1.8,0.1-2.1,0-3-1
		c-0.9-1.1-2.6-1.5-5.1-0.6c-1.7,0.7-2.5,0.7-3.4,0.3l0.2-0.1c2.2-1.7,6-2.5,8.2-2.5c7.4,0,23.8,17.2,42.9,17.2
		c1.4,0,2.7-0.1,4.1-0.4c3.5,8.1,4.4,36.4,1.4,45.5c-21-0.8-42.1-5.2-54.3-11.4C183.3,311.3,182.9,304.1,182.7,300.2z M178.4,371.8
		c0.8-3.9,5.5-10,15.4-10c9.5,0,14.6,3.2,17.8,4.1c1.4,0.4,1.6-0.8,0.4-1.3c-2.2-1-6.6-3-11.7-4c9.2-1.2,13.5,0,24.2,2.9
		c9.4,2.6,12.6,4.5,16.2,4.1c0.1,1,0.2,1.9,0.3,2.8c-1.9,1.3-6.9,3-9.5,3.5c-0.8,0.1-1.1,0-1.3-0.4c-0.5-0.8-1.4-0.8-2.3-0.1
		c-5.7,4.6-10.4,8.4-20.3,8.4c-11.4,0-22.5-4.7-28.6-7.9C178.3,373.4,178.2,372.7,178.4,371.8z M239.6,374.8
		c-2.6,1.3-5.5,2.7-8.3,3.5c-0.7,0.2-1.6,0.2-1.9-0.1c-0.3-0.3-0.6-0.1-1,0.2c-6.9,4.6-11.3,7.6-22.9,7.6c-8.2,0-24.2-2.6-28.1-6.5
		c-1.3-1.3-1.2-2.4,0.2-3.7c0.2,0.2,0.5,0.3,0.9,0.5c9,4,17.5,7.5,29.2,7.5c7.5,0,14.9-2.5,20.8-7.6c0.4-0.4,0.7-0.4,1.1,0
		c0.3,0.3,1.2,0.3,2,0.2c2.8-0.5,7.1-1.8,9.6-3C240.9,373.9,240.5,374.3,239.6,374.8z M240.2,364.9c-4.5-0.1-9.1-2.5-14.9-4.1
		c-7.1-2-17.9-4.8-24.1-3.5c-0.5,0.1-0.7,0.1-0.7-0.4c-0.1-2.2,2.4-3.7,3.2-7.4c2.9,2.6,4.7,3.3,7.9,4.1c0.5,0.1,0.8,0.1,1.1-0.3
		s0.2-0.7-0.4-1c-7-2.6-8.9-6.1-11.9-13.3c4,2.9,4.6,3.1,7.9,4.6c2.6,1.1,5,3.4,5.6,5.1c0.3,0.8,0.9,0.8,1.2,0s-0.3-2.3-1.2-3.3
		c5.8,0.8,11.1,3.7,10.1,7.6c-0.1,0.6-0.1,0.9,0.3,1.2c0.4,0.3,0.8,0.1,1.2-0.5c2.2-4-1.4-9.1-11.6-11.2c-10.1-2.1-10.8-2.8-16.8-11
		c-1.6-2.2-2.7-3.1-4.7-4.7c9.2,2.8,28.8,7.4,47.8,7.6c0,1,0.1,2.7,0.2,3.2c0.1,0.6,0,1-0.4,1.4c-2.6,2.8-1.6,6.6-4.3,9.9
		c-0.8,1,0.3,1.8,1.5,1c0.9-0.5,3.3-3,3.9-4.2C242.3,350.3,242.3,360.8,240.2,364.9z M313,379.6c0.3,0.5,0.3,0.8,0.3,1.3
		c0,3.7-7.5,8.2-20,8.2c-13.6,0-23.5-5.1-30.9-11.9c-1.1-1-1.5-1.2-3-0.6c-0.4,0.2-1.4,0.3-2.3,0.2c-3.6-0.5-9.1-1.4-12.8-2.5
		c-1-0.3-1.4-0.5-1.5-1.5c2.6,1,12.4,2.4,14.5,2.6c1.3,0.1,2.3,0,3-0.4s1-0.5,1.9,0.2c7.9,6.9,17.5,11.7,30.2,11.7
		C303.8,387,310.6,384.1,313,379.6z M311.4,375.6c0,6.6-6.8,9.7-19.1,9.7c-11.3,0-22.3-5-29.7-12.4c-1-1-2-0.8-2.8-0.2
		c-0.7,0.6-1.2,0.7-2.4,0.6c-4.4-0.3-10.4-1.2-14.6-2.7c0-0.7,0-1.4-0.1-2.2c-0.1-0.7,0.2-0.9,1.9-1c6.8-0.5,18.4,1.5,21.5,1.4
		c-0.3,0.6-0.6,1.1-0.8,1.8c-0.4,1.1,0.4,1.6,1.1,0.7c3-4.1,7.6-7.8,19.6-7.8C302.5,363.4,311.4,368.1,311.4,375.6z M284.7,340
		c-1.7,2.9-2.9,2-5.2,4.5c-1.4,1.5-3.1,3.4-3.7,4.7c-0.7,1.9,0.8,2.6,1.8,0.9c0.7-1.1,2.1-3.3,3.5-4.5s2.8-1,3.8,0.8
		c1.3,2.3,1,3.8,0.2,5c-0.5,0.7-0.4,1.4,0.2,1.8c2.5,1.9,4,4.6,4,7.8c-1.1,0-2.3-0.1-3.5-0.1c-8.9,0-14.7,1.9-17.9,5.3
		c-6.5,0.2-15.4-1.7-24-1.3c1.2-7.5,1.7-11.6,0.7-19.2c-0.1-0.9,0.2-0.8,0.8-1.1c1.4-0.5,1.5-1.3,2.5-2.2c0.9-0.9,1.2-1,3.4-1
		c1,0,4.6,0.3,5.6,0.3c2.1,0,1.7-0.6,3.7-0.6c1.9,0,3.6,0.5,5.2,0.8c0.7,0.1,1.2-0.1,1.6-0.6s0.4-1.1-0.2-1.5c-0.9-0.5-3.8-1-4.8-1
		c-2.2,0-2.8,0.7-5.2,0.7c-3,0-3.7-0.5-9.5-0.5c-1.3,0-2,0-3.3-0.3c-0.7-0.2-0.6-0.7,0-0.9c0.9-0.3,1.5-1.1,1.1-1.7
		c-0.7-1.4-2.4,1.4-2.7-1.8c15.2-0.1,34.7-2.4,46.6-4.7C288,333.4,286.8,336.3,284.7,340z M296.4,325.7c-13.5,4.3-39.6,6.9-54.6,6.9
		c-13.8,0-40.5-3.6-55.6-10c-0.9-0.4-1.2-1-1.5-2c-0.1-0.5-0.2-1-0.3-1.7c14.6,6.8,39.4,11.1,60.9,11.1c16.5,0,39.1-2.7,53.3-7.2
		c-0.1,0.4-0.3,0.9-0.4,1.3C298,324.9,297.5,325.4,296.4,325.7z M299.3,320.3c-11,4.3-34.1,7.8-53.9,7.8c-1.3,0-2.7,0-4,0
		c2.5-9.9,2.5-35.8-1.6-46.2c11.7-3.4,20.6-14.6,23.8-17.8c2.2-2.2,3.6-3,5.1-3.1c3.3-0.3,6-1.6,8.3-3c3,2.8,6.7,4.3,10.5,4.6
		c1.9,2.6,3.1,3.8,5.6,5.5c-13.5,3.1-21.5,8.7-21.5,15.3c0,8.9,10.5,14.7,29.1,17.2C300.9,307.3,300.6,314.3,299.3,320.3z
		 M315.3,301.7c2.6,0.1,5.2,0.1,8,0.1c0.8,0,1.6,0,2.5,0c-0.4,1.5-1.7,2.5-3.4,2.5C320,304.3,318,303.1,315.3,301.7z M326.4,304.5
		c0.8-0.7,1.4-1.6,1.9-2.7c2.1,0,4.1-0.1,6.1-0.2C333.3,305,329.9,306.2,326.4,304.5z M335.2,304c0.6-0.7,1-1.6,1.3-2.6
		c2.3-0.1,4.5-0.3,6.6-0.5C341.6,303.5,338.4,305.6,335.2,304z M323.3,299.8c-32.3,0-49.4-6.6-49.4-16.6c0-7.5,14.3-15.9,46.4-15.9
		c28.4,0,48.2,7.6,48.2,16.9C368.5,294.8,353.7,299.8,323.3,299.8z"/>
	<path d="M320.5,268.9c-22.8,0-44,5.6-44,13.2c0,8.7,23.6,14,45.6,14c26.3,0,42.4-5.4,42.4-13.1
		C364.5,275.5,349.8,268.9,320.5,268.9z M322.1,294.1c-24.7,0-43.9-6.7-43.9-12.2c0-5.1,18.5-11.2,42.4-11.2
		c23,0,41.8,5.2,41.8,12.2C362.4,289.4,345.6,294.1,322.1,294.1z"/>
	<path class="st2" d="M345.3,276c0-1.8-6.2-2.1-6.2-0.5C339.1,277.4,345.3,277.5,345.3,276z"/>
	<path class="st2" d="M352.1,280.6c0-1.8-6.2-2.1-6.2-0.5C345.9,282,352.1,282.1,352.1,280.6z"/>
	<path class="st2" d="M353.9,281.1c0,1.8,6.2,2,6.2,0.5C360.2,279.8,353.9,279.4,353.9,281.1z"/>
	<path class="st2" d="M349.9,284.9c0,1.8,6.2,2,6.2,0.5C356.1,283.6,349.9,283.3,349.9,284.9z"/>
	<path class="st2" d="M339.9,284.8c0,1.8,6.2,2,6.2,0.5C346.1,283.5,339.9,283.1,339.9,284.8z"/>
	<path class="st2" d="M342.1,279.7c0-1.8-6.2-2.1-6.2-0.5C335.9,281.1,342.1,281.2,342.1,279.7z"/>
	<path class="st2" d="M336.8,283.1c0-1.8-6.2-2.1-6.2-0.5C330.6,284.4,336.8,284.6,336.8,283.1z"/>
	<path class="st2" d="M333,288.3c0,1.8,6.2,2,6.2,0.5C339.3,287,333,286.7,333,288.3z"/>
	<path class="st2" d="M333.7,276.1c0-1.8-6.2-2.1-6.2-0.5C327.4,277.5,333.7,277.6,333.7,276.1z"/>
	<path class="st2" d="M324.6,275c0-1.8-6.2-2.1-6.2-0.5C318.3,276.4,324.6,276.5,324.6,275z"/>
	<path class="st2" d="M321,279.8c0,1.8,6.2,2,6.2,0.5C327.2,278.5,321,278.1,321,279.8z"/>
	<path class="st2" d="M324,285.9c0,1.8,6.2,2,6.2,0.5C330.3,284.6,324,284.2,324,285.9z"/>
	<path class="st2" d="M321.1,290.2c0,1.8,6.2,2,6.2,0.5C327.4,288.9,321.1,288.6,321.1,290.2z"/>
	<path class="st2" d="M311.9,289.5c0,1.8,6.2,2,6.2,0.5C318.1,288.2,311.9,287.9,311.9,289.5z"/>
	<path class="st2" d="M321.8,285.6c0-1.8-6.2-2.1-6.2-0.5C315.5,287,321.8,287.1,321.8,285.6z"/>
	<path class="st2" d="M316.6,281.8c0-1.8-6.2-2.1-6.2-0.5C310.3,283.1,316.6,283.3,316.6,281.8z"/>
	<path class="st2" d="M317.8,276.9c0-1.8-6.2-2.1-6.2-0.5C311.6,278.3,317.8,278.4,317.8,276.9z"/>
	<path class="st2" d="M309.5,276.6c0-1.8-6.2-2.1-6.2-0.5C303.3,278,309.5,278.1,309.5,276.6z"/>
	<path class="st2" d="M305.9,281.9c0-1.8-6.2-2.1-6.2-0.5C299.7,283.3,305.9,283.4,305.9,281.9z"/>
	<path class="st2" d="M303.8,287.4c0,1.8,6.2,2,6.2,0.5C310,286.1,303.8,285.8,303.8,287.4z"/>
	<path class="st2" d="M293.3,287.5c0,1.8,6.2,2,6.2,0.5C299.6,286.2,293.3,285.8,293.3,287.5z"/>
	<path class="st2" d="M298.1,277.5c0-1.8-6.2-2.1-6.2-0.5C291.9,278.9,298.1,279,298.1,277.5z"/>
	<path class="st2" d="M287,283.9c0,1.8,6.2,2,6.2,0.5C293.2,282.6,287,282.3,287,283.9z"/>
	<path class="st2" d="M289.9,280.5c0-1.8-6.2-2.1-6.2-0.5C283.7,281.9,289.9,282,289.9,280.5z"/>
	<path d="M278.2,158.3c2.7-2,6.1-5.3,9.5-6.9c1.1-0.5,2.1-0.7,2.9-0.6c-0.5,0.4-0.9,0.8-1,1.1c-0.6,0.8,0.6,1.8,1.2,1.1
		c1-1.1,2.9-2.5,4.2-3.3c1-0.6,0.4-1.9-0.7-1.4c-0.4,0.2-1.1,0.6-1.8,1.1c-1.3-0.5-3.3-0.5-5.1,0.3c-2.7,1.2-8.8,5.7-10.1,7.4
		C276.5,158.2,277.3,159,278.2,158.3z"/>
	<path d="M296.6,139.6c1.1-0.3,2.2-0.5,3.2-0.5c-0.5,0.5-0.9,0.9-1,1.2c-0.7,1.2,0.4,1.9,1.4,1c2-1.9,9.6-7.9,11.9-9.4
		c1.4-0.9,0.4-2.5-1-1.7c-1.7,1-6.3,4.4-9.4,7.1c-1.4-0.2-3.7,0.2-5.3,0.6C294.9,138.3,295.2,139.9,296.6,139.6z"/>
	<path d="M249.1,207.6c0.6,1.6,1.1,2.6,2.2,4c0.8,1,2.1,2.1,2.8,1.4c0.7-0.6-0.6-1.8-1.3-2.5c2-0.3,5.9,1.5,9.7-0.7
		c0.9-0.5,0.4-1.5-0.5-1c-1.4,0.8-3.7,1-5.6,0.8c1-0.5,0.1-1.5-1.1-1.3c-1.9,0.2-3.5-0.1-4-1.3c-0.5-1.1,0.4-2.5,1.8-4.4
		c0.7-0.8-0.2-1.7-1.1-1c-0.5,0.3-1.2,1-1.6,1.4c-0.6,0.6-1.1,0.7-1.8,0c-0.5-0.4-0.6-0.8-0.3-1.3c0.3-0.8,1-1.6,2.3-2.5
		c1.4-0.9,2.4-1.6,3.1-2.7c0.5-0.9-0.6-1.5-1-0.5c-0.3,0.7-1.9,1.8-2.5,2.2c-1.7,1.1-2.8,1.8-3.1,3.5c-0.6,0.7-1,1.6-0.2,2.5
		C247.5,204.7,248.9,207,249.1,207.6z"/>
	<path d="M254,206.7c6.3-1.2,9.8,1.7,13,1.4c-0.2,0.5-1.1,1.5-1.6,1.8c-0.4,0.3-0.3,1,0.4,0.8c0.7-0.2,2-1.6,2.4-2
		c0.9-1.2,1.4-0.7,2.4-1.4c0.8-0.6,0.3-1.4-0.7-1.2c-0.5,0.1-1.9,0.5-2.3,0.6c-0.7,0.1-1.1-0.3-0.5-0.6c0.4-0.2,2.1-0.9,2.5-1.1
		c0.6-0.4,0.7-1-0.2-1.1c-0.4,0-1.4,0-2.1,0.2c0.3-0.2,0.8-0.5,1.2-0.7c0.7-0.4,0.6-1.1-0.4-1c-0.5,0-1.7,0.3-2.8,0.7
		c1.2-1.4,0.7-2.6-0.6-1.6c-0.5,0.4-1.5,1.3-2,1.7s-1.5,0.6-2.2,0.5c-2.7-0.4-5.3-0.3-7.1,1C252,205.5,252.6,207,254,206.7z"/>
	<path d="M248.9,147.4c-5.1,0-7.3-1.7-11.1-1.7c-2.2,0-2.4,2-0.1,2c1.2,0,2.6,0.4,4.1,0.9c-4.9,3.3-11.7,3.7-17.3,3.4
		c-2.1-0.1-3.1,0.8-1.3,1.9c-1.4,1.4-3.1,2.3-7.4,1.7c-3.5-0.5-7.6-0.6-9.5,1c-1,0.8-0.3,1.8,0.9,1.3c3.3-1.3,6.6,0.5,8.6,2.7
		c0.9,1.1,1.9,0.1,1.4-1.1c-0.2-0.5-0.8-1.2-1.3-1.6c5.2,0.3,8-1,9.8-3.3c5.6,0.8,16.3-2.6,18.9-5.3c1.6,0.4,3.2,0.7,4.6,0.4
		C251.5,149.2,251.3,147.4,248.9,147.4z"/>
	<path d="M247.1,224.9c3.1-1,5.5-2.7,6.7-4.5c0.4-0.5-0.3-0.9-0.6-0.4c-0.6,0.8-1.8,1.3-2.7,0.7c-0.3-0.2-0.8,0-0.9,0.5
		c-0.2,1.2-1.5,2.3-2.8,2.9C246,224.4,246.3,225.1,247.1,224.9z"/>
	<path d="M204.8,229.4c0.1,0.8,1.9,3.1,2.6,3.7c1.5,1.3,1.7,1.7,2.4,3c1.1,2.2,3.9,3.3,5.9,3.3c0,0.3,0.5,0.6,0.7,0.6
		c0,2.1,3.8,2.9,8.4,3c-2.4,1.7-0.3,2.7,2.9,2c8,8.1,23.1,8.6,29.6-0.2c2.1,1.1,4,1.7,4.2,0c3.7,0.3,7.3-0.6,8.8-3.1
		c3.1,0,6.2-1.1,8.3-3.4c1.4-1.5,0.7-2.6-0.6-2.3c-1.4,0.3-2.5,0-4.3-0.7c-5-2.1-10.9-8.2-14.5-11.6c1.2-2.5,0.4-6.2-1.3-7.8
		c-1.3-1.2-2.5-0.1-1.5,1.3c1.8,2.5,2,6.9-2.6,6.9c-1.9,0-3.1,0.4-4.6,1.6c-2.8,2.2-8.1,2.9-11.7-0.4c-2-1.9-2.2-3.2-6.9-3.9
		c-1.8-0.3-2.8-1.1-1.5-3.6c1.2-2.2,4.9-5.2,6.5-6.6c0.6-0.6,1.1-0.9,1.5-1.9c0.4-1.4,1.5-4.6,2.5-5.4c1.6-1.3,4-0.9,5.2-1.3
		c1.4-0.5,1.2-2.1,0-2.7c-1.4-0.7-3.9,0-5.8,0.6c-0.4-0.4-3-3.5-3.5-4c-0.9-0.8-1.5,0-1.1,0.8c0.2,0.4,0.5,1,0.8,1.4
		c-1.4-0.5-1.7,0.8-1,1.5c0.8,0.8,2.1,2,3,2.8c-0.2,0.3-0.8,1.3-1.1,1.8c-1.6-1.3-6.5-2.9-8.9-2.4c0.1-1.4-0.1-2.2-1.2-3.1
		c1.5-1.5,3.5-2.7,5.4-3.5c0.9-0.4,0.5-1.1-0.3-1c-1.6,0.2-5.7,2.4-7.3,4.2c-0.5,0.6-0.8,1.1-1.7,1.5c-1.1,0.5-2.9,1.6-3.6,2.5
		c-0.4,0.6-0.5,1.3-0.1,1.9c0.4,0.6,1.2,0.7,2.1,0.5c2.7-0.4,4.3-1,6.6-1c2,0,5.6,0.9,6.6,1.4c-1.8,1.1-6.8,1.3-9.1,0.6
		c-1-0.3-1.5,0.5-0.6,1.1c1,0.7,6,1.1,8.2,0.9c-0.4,0.2-1,0.6-1.4,0.9c-1,0.7-0.7,1.7,0.3,1.7c0.5,0,2-0.1,2.8-0.2
		c-1.9,1.9-3.7,2.9-5.9,5.7c-1.6,2.1-1.9,3.8-1.4,5c-5.1,3.4-13.5,6.9-20.5,6.4C205,227.6,204.6,228.4,204.8,229.4z M264.9,231.8
		c2.6,2.3,3.5,2.7,4.1,3.9c-1.4-0.3-3.1-2-4.6-3.3c-0.8-0.7-3.6-3.3-3.5-3.9C262.3,229.1,262.9,230,264.9,231.8z M263.2,233
		c3.2,3.1,5,4.1,5.2,4.8c-1.5-0.3-3.4-1.8-5.9-4.2c-1.9-1.8-3.7-3.8-4.7-5.9C259.8,229.3,260.9,230.7,263.2,233z M261.2,234
		c3.9,3.7,5.6,4.5,5.9,6c-1.5-0.5-4.2-3.1-6.5-5.5c-1.7-1.7-5.2-5.1-5.2-6.7C256.6,228.5,258,230.9,261.2,234z M259.1,235
		c2.8,3.3,3.7,3.5,4,4.7c-2.6-0.9-8.3-6.7-9.1-10.2C256.1,230.5,256.5,231.8,259.1,235z M257.3,236.1c2.7,3.3,4.5,4,4.5,5.4
		c-1.4-0.7-3.5-2.8-5.4-4.9c-1.1-1.3-3.1-4.2-3.7-5.5C254.3,231.8,254.1,232.2,257.3,236.1z M254.9,237.3c2,3.2,3.9,4.6,3.9,5.3
		c-1.4-0.6-2.9-2.1-5-5.1c-1.7-2.4-2.8-4.9-3.2-6.7C252,232.5,253.2,234.6,254.9,237.3z M251.1,235.9c2.2,3,3.7,4.6,3.9,5.8
		c-3.2-1.3-7.7-7.7-8-11.1C248.6,231.7,249.2,233.4,251.1,235.9z M249.9,239c-2.5-1.9-4.4-4-5.1-6.7
		C246.6,233.7,248.9,236.7,249.9,239z M243,232.9c0.1,0.4,0.6,1.3,0.7,1.7c-0.5-0.1-1.2,0-1.7,0.1C242.5,234,242.7,233.5,243,232.9z
		 M245,238.2c2,0,4.1,2.4,4.7,4.6c0.8-1.2,1.2-1.5,2.2-0.9c0.7,0.4,1.3,1,1.7,1.4c0.6,0.5,0.2,1.6-0.8,2.3c-0.8,0.6-1.6,1.2-3-1.3
		c-0.1,2.8-0.8,3.6-2.3,4.2c-0.8,0.3-3.4,0.5-4.2,0.4c-1.8-0.3-2.1-1.7-2.3-4.1c-0.3,2.6-1.1,4-2.6,3.7c-1.5-0.2-3.1-0.9-4.6-1.9
		c-0.5-0.3-0.8-1.3-0.8-2.2c-0.3,1.1-0.9,1.2-1.4,0.7c-0.4-0.4-0.7-0.8-0.9-1.1s0-1,0.5-1.5c0.9-0.7,1.6-0.2,2,0.8
		c0.9-2.1,2.8-4.5,4.7-4.5c1.3,0,2.4,1.3,2.8,3.4C242,239.7,243.1,238.2,245,238.2z M239.7,231.6c-0.9,3-6.1,7.8-9.9,8.9
		c0.7-0.8,4.3-3.7,5.1-4.4C235.8,235.4,239,232.5,239.7,231.6z M238.6,229.8c-0.6,1.5-2,3-4.6,5.2c-2.7,2.3-5.6,4.3-7.7,4.6
		c2.1-2.2,4-3.1,7.2-5.7C234.5,233,237.6,230.2,238.6,229.8z M236.5,228c-0.4,2.2-1.4,2.7-5.1,5.6c-2.6,2-7.3,5.5-8.9,5.4
		c1.7-2.2,4.8-3.6,7.8-5.9C232.9,231.1,235.6,228.3,236.5,228z M218.9,237.2c2.3-1.5,6-3.7,8.3-5.1c2.8-1.8,4.7-3.5,6.8-4.8
		C232.9,230.1,224.2,236.4,218.9,237.2z M232.1,224.9c-0.3,1.8-3.2,3.7-7.5,6.2c-2.8,1.6-8.1,4.3-9.8,4.1c0.8-0.8,4.1-2.4,9.2-5.2
		C228.7,227.4,230.3,225,232.1,224.9z M229.4,223.4c-0.1,1.7-2.7,3.5-5.9,5.4c-2.7,1.6-7.1,3.6-8.9,3.6c1.8-1,5.6-2.9,8-4.5
		C226.3,225.5,228.1,223.6,229.4,223.4z M219.3,226.4c1.2-0.6,5.4-3,6.4-3.3c-1.1,1.3-2.9,2.7-5.9,4.3c-2.9,1.5-4.6,2.3-7.1,2.4
		C214.7,228.1,217.1,227.5,219.3,226.4z"/>
	<path d="M254.6,251.9c-8.7,8.7-19.8,9.4-27.4-1.8c-0.8-1.2-1.8-0.9-1.1,0.5c6.2,12.9,21.1,13.7,29.7,2.2
		C256.6,251.6,255.8,250.7,254.6,251.9z"/>
	<path d="M196.9,264.1c1,0,1.9-0.8,1.9-1.9c0-1-0.8-1.9-1.9-1.9c-1,0-1.9,0.8-1.9,1.9C195.1,263.3,195.9,264.1,196.9,264.1z"/>
	<ellipse cx="202.2" cy="264.2" rx="1.9" ry="1.9"/>
	<path d="M211.5,260.7c1,0,1.9-0.8,1.9-1.9c0-1-0.8-1.9-1.9-1.9s-1.9,0.8-1.9,1.9C209.6,259.9,210.4,260.7,211.5,260.7z"/>
	<path d="M210.5,271.2c1,0,1.9-0.8,1.9-1.9c0-1-0.8-1.9-1.9-1.9c-1,0-1.9,0.8-1.9,1.9C208.7,270.4,209.5,271.2,210.5,271.2z"/>
	<path d="M215,268c1,0,1.9-0.8,1.9-1.9c0-1-0.8-1.9-1.9-1.9c-1,0-1.9,0.8-1.9,1.9C213.2,267.1,214,268,215,268z"/>
	<path d="M219,260.8c1,0,1.9-0.8,1.9-1.9c0-1-0.8-1.9-1.9-1.9c-1,0-1.9,0.8-1.9,1.9S218,260.8,219,260.8z"/>
	<path d="M223.9,269.6c1,0,1.9-0.8,1.9-1.9c0-1-0.8-1.9-1.9-1.9c-1,0-1.9,0.8-1.9,1.9C222.1,268.7,222.9,269.6,223.9,269.6z"/>
	<path d="M218.8,273.4c1,0,1.9-0.8,1.9-1.9c0-1-0.8-1.9-1.9-1.9c-1,0-1.9,0.8-1.9,1.9C217,272.5,217.8,273.4,218.8,273.4z"/>
	<path d="M230.1,277.1c1,0,1.9-0.8,1.9-1.9c0-1-0.8-1.9-1.9-1.9c-1,0-1.9,0.8-1.9,1.9C228.3,276.3,229.1,277.1,230.1,277.1z"/>
	<path d="M232.6,272.3c1,0,1.9-0.8,1.9-1.9c0-1-0.8-1.9-1.9-1.9c-1,0-1.9,0.8-1.9,1.9C230.7,271.5,231.6,272.3,232.6,272.3z"/>
	<path d="M239.9,272.4c1,0,1.9-0.8,1.9-1.9c0-1-0.8-1.9-1.9-1.9c-1,0-1.9,0.8-1.9,1.9C238,271.5,238.9,272.4,239.9,272.4z"/>
	<path d="M240,274.2c-1,0-1.9,0.8-1.9,1.9c0,1,0.8,1.9,1.9,1.9c1,0,1.9-0.8,1.9-1.9S241,274.2,240,274.2z"/>
	<path d="M244.5,269.9c1,0,1.9-0.8,1.9-1.9c0-1-0.8-1.9-1.9-1.9s-1.9,0.8-1.9,1.9C242.7,269.1,243.5,269.9,244.5,269.9z"/>
	<path d="M250.5,269.8c1,0,1.9-0.8,1.9-1.9c0-1-0.8-1.9-1.9-1.9c-1,0-1.9,0.8-1.9,1.9C248.7,268.9,249.5,269.8,250.5,269.8z"/>
	<path d="M255,267c1,0,1.9-0.8,1.9-1.9c0-1-0.8-1.9-1.9-1.9c-1,0-1.9,0.8-1.9,1.9C253.2,266.1,254,267,255,267z"/>
	<path d="M262.3,260.9c1,0,1.9-0.8,1.9-1.9c0-1-0.8-1.9-1.9-1.9c-1,0-1.9,0.8-1.9,1.9S261.2,260.9,262.3,260.9z"/>
	<path d="M279.2,247.1c-1,0-1.9,0.8-1.9,1.9c0,1,0.8,1.9,1.9,1.9c1,0,1.9-0.8,1.9-1.9C281.1,247.9,280.3,247.1,279.2,247.1z"/>
	<ellipse cx="285" cy="249.4" rx="1.9" ry="1.9"/>
	<path d="M284.8,244.1c0-1-0.8-1.9-1.9-1.9c-1,0-1.9,0.8-1.9,1.9c0,1,0.8,1.9,1.9,1.9C284,245.9,284.8,245.1,284.8,244.1z"/>
	<path d="M288.9,243.4c-1,0-1.9,0.8-1.9,1.9c0,1,0.8,1.9,1.9,1.9c1,0,1.9-0.8,1.9-1.9C290.8,244.3,289.9,243.4,288.9,243.4z"/>
	<path d="M289.3,238.8c0-1-0.8-1.9-1.9-1.9c-1,0-1.9,0.8-1.9,1.9c0,1,0.8,1.9,1.9,1.9S289.3,239.9,289.3,238.8z"/>
	<path d="M291.4,239.3c0,1,0.8,1.9,1.9,1.9c1,0,1.9-0.8,1.9-1.9c0-1-0.8-1.9-1.9-1.9C292.2,237.4,291.4,238.2,291.4,239.3z"/>
	<ellipse cx="292" cy="253.4" rx="1.9" ry="1.9"/>
</g>
<g>
	<path class="st2" d="M127.4,282.2l0.2,0.4c0,0.2-0.1,0.4-0.1,0.6c-0.2,0.5-0.9,1-1.5,0.8c-0.3-0.1-0.5-0.6-0.8-0.6
		c0-0.3,0-0.4,0.2-0.6c0.2-0.1,0.5-0.1,0.7-0.2s0.4-0.3,0.7-0.5C127,282,127.1,282.1,127.4,282.2z"/>
	<path class="st2" d="M132.4,277.8c-0.4,0.4-1,0.3-1.4,0.6c-0.2,0.2-0.5,0.4-0.6,0.7c-0.2,0.5-0.4,0.9-1,0.8c-0.3,0-0.5-0.1-0.5-0.4
		c0-0.5,0.7-1,1.1-1.3c0.2-0.2,0.7-0.4,0.6-0.8c0.3-0.1,0.3,0.1,0.5,0.2s0.4,0.1,0.6,0c0.2-0.1,0.4-0.4,0.6-0.3
		C132.7,277.4,132.5,277.7,132.4,277.8z"/>
	<path class="st2" d="M133.1,282.6c0.2-0.1,0.6-0.4,0.8-0.2c0.4,0.3-0.1,0.6-0.3,0.8c-0.3,0.2-0.7,0.5-1,0.7s-0.9,0.6-1.2,0.4
		c-0.4-0.2-0.5-0.7-0.3-1.1c0.2-0.5,0.5-0.8,0.9-0.9C131.9,282.8,132.8,282.7,133.1,282.6z"/>
	<path class="st2" d="M142.1,279.6c0,0.3-0.1,0.5-0.2,0.7c-0.2,0.3-0.3,0.3-0.6,0.2c-0.2-0.1-0.3-0.1-0.4-0.2
		c-0.1-0.1-0.3-0.2-0.4-0.3c-0.3-0.3,0.2-0.7,0.5-0.8c0.3-0.1,0.4,0,0.6,0.1C141.5,279.4,142.1,279.7,142.1,279.6z"/>
	<path class="st2" d="M140,277.1c-0.4,0-1,0.1-0.8-0.5c0.2-0.5,0.7-0.5,1.2-0.6c0.3,0,1-0.1,1.2,0.2
		C141.8,276.8,140.4,277.1,140,277.1z"/>
	<path class="st2" d="M139.5,283.2c-0.3,0.1-0.6,0.2-0.9,0.3c-0.2,0.1-0.4,0.3-0.7,0.2c-0.2-0.1-0.4-0.5-0.4-0.7
		c-0.1,0-0.2-0.2-0.2-0.2c0.6-0.1,0.9-0.7,1.5-0.7C139.3,282.3,139.6,282.8,139.5,283.2z"/>
	<path class="st2" d="M137.6,279.3c-0.1,0.4-0.8,0.3-1.2,0.4s-0.5,0.4-1,0.3c-0.3,0-0.6-0.1-0.7-0.4c-0.3-0.4,0.1-0.7,0.5-0.9
		c0.2-0.1,0.5-0.4,0.7-0.3c0.1,0,0.2,0.2,0.3,0.3c0.2,0.1,0.4,0.1,0.6,0.2C137.1,278.9,137.8,278.7,137.6,279.3z"/>
</g>
<g>
	<path class="st2" d="M245.4,288.7c0-0.8,0.9-1.5,1.9-1.5c0.9,0,1.4,0.7,1.4,1.5c0,1-0.6,1.6-1.3,1.6
		C246.2,290.3,245.4,289.9,245.4,288.7z"/>
	<path class="st2" d="M250.3,303.6c0,0.9-0.8,1.9-1.8,1.9c-1.1,0-1.9-0.6-1.9-1.8c0-0.8,0.7-1.8,2-1.8
		C249.5,301.9,250.3,302.6,250.3,303.6z"/>
	<path class="st2" d="M248.7,320.1c-1.2,0-1.9-0.8-1.9-1.7c0-1.2,0.7-2.1,1.9-2.1c1.1,0,1.9,0.7,1.9,1.7
		C250.5,319.1,249.8,320.1,248.7,320.1z"/>
</g>
<path class="st5" d="M145.7,270.2c1.3-1,3.3-1.4,5-1.1c1.5,0.3,1.9,0.4,3.4-0.6c1.9-1.4,4.3,0.1,6.1,0.5c1.6,0.4,2.5,0.3,3.8-0.3
	c1-0.5,2.1-0.4,3.4,0.1c1.4,0.6,3.4,0.6,4.5,0c0.8-0.4,1.7-0.6,2.4-0.1c0.6,0.5,1.6,0.4,2.8,0.3c1.3-0.2,2-0.2,3,0.7
	c1.4,1.2,3.3,1,5.2,0.3s2.8-0.9,3.7,0.3c0.7,1,1.7,1.3,3.5,1c1.5-0.2,2.3,0.2,2.7,1c0.5,1.1,0,1.4-0.9,1.8c-1.5,0.5-1.3,2-0.5,2.8
	c1.2,1.2,0.5,2.1-0.5,1.8c-0.4-0.1-1.5,0-1.8,0.2c-0.7,0.4-1.6,0-1.8-0.9c-0.4-1.9-2.5-2-3.6-0.3c-0.9,1.2-1.7,2.3-2.9,2.6
	c-1.8,0.6-2-1-1.2-1.6c1.7-1.4,3.1-3.5,1.2-4.6c-0.8-0.5-2.3-0.6-2.8,1.5c-0.3,1.1-0.8,1.3-1.6,1.1c-0.7-0.2-0.9-0.6-1-1.4
	c-0.1-1-1.7-1.5-2.2-0.6c-0.1,0.2-0.5,0.3-0.8,0.1c-1.4-1.1-2.8,0.5-2.1,2.1c0.3,0.6,0.8,1.9,0.5,2.2c-0.6,0.6-1.5,0.2-2.3-0.5
	s-0.5-1.4-1.7-1.8c-0.7-0.2-1.3-0.2-1.6,0.1c-0.3,0.3-0.7,0.4-0.9-0.5c-0.2-1.1-0.4-1.6-1.3-1.8c-1.2-0.3-1.9,0.4-2.4,1.3
	c-0.5,0.8-1.3,2.5-2.3,3.4c-0.8,0.7-1.6,0.9-2.2,0.4c-0.7-0.7,1-2.5,2.3-3.5c0.8-0.6,1-1.9,0.4-2.5s-1.5-0.5-2.2,0.1
	c-0.5,0.4-1.9,1.6-2.3,1.9c-0.6,0.6-0.9,0.4-1-0.3c-0.2-1.6-1.8-1.4-2.6-0.7c-0.4,0.4-1.7,1.5-2.2,1.8c-1.2,0.5-1.6-0.2-1-0.9
	c0.3-0.4,1.2-1,1.5-1.4c1.1-1.2,0.1-2.7-2-2.6c-0.5,0-2.4,0.3-2.8,0.3C145.4,271.9,144.6,271,145.7,270.2z"/>
<g>
	<path class="st2" d="M195.7,276.4c-0.5-0.6-0.5-0.9,0.5-1.2c0.2,0,0.3-0.2,0.5-0.3c2.5,1,3.6,3.4,3.6,4.7c0,4.6-2.4,9.1-12.9,9.5
		c-12.4,0.5-33.5-1-44.8-2.5c3.3-1.5,5-3.8,5-6.3c0-1.3-0.8-2.7-2.9-4.6c-0.9-0.8-1.1-1.7-0.4-2.4c1,0.6,2.4,0.8,3.6,0.6
		c0.6-0.1,0.7,0.3,0.5,0.6c-0.7,0.8-0.6,2.4,0.3,3.3c1.5,1.4,4,0.1,5.4-1.2c0.3,1.2,1.4,1.6,2.7,1c-0.8,1.1-1,2.9,0.1,3.6
		c2.4,1.6,5.5-0.1,7.3-3.7c0.4-0.9,0.8-0.8,0.9,0.1c0.2,1.6,1.4,2,2.5,1.4c0.5-0.3,1-0.1,1.2,0.4c0.8,1.5,3.6,2.8,5.4,1.6
		c1-0.7,0.9-3.2,0.4-4c0.3,0.1,1.2,0.1,1.4-0.3c0.2,1.7,2.3,2.4,3.8,2c-1,5.3,5.4,4,7,1.2c0.6-1,1-0.8,1.3-0.1
		c0.3,0.9,1.4,1.2,2.2,1c0.6-0.2,1.9-0.4,2.6-0.2C195.5,281.4,197.2,278.1,195.7,276.4z"/>
	<path class="st2" d="M132.4,272.9c2.9-0.5,6.8-0.3,9.2,0c-0.2,0.3-0.4,0.7-0.5,1c-0.9,0.1-1.5,0-2.4,0.7s-1.7,0.8-2.3,0.3
		c-0.7-0.6-2.5-0.7-3.3,0.2c-0.7,0.8-1.2,0.9-2.1,0.6c-0.8-0.3-1.9,0-2.9,1.1c-0.5,0.6-1,1.1-1.6,1.6
		C126.2,276.3,127.7,273.7,132.4,272.9z"/>
</g>
<g>
	<path class="st6" d="M202.3,280.2c3,0.7,5.3,3.5,5.3,5.1c0,6-13.1,9.5-39.4,9.5c-21.3,0-36.6-2.6-43.9-5.8c0.5,0,1.1-0.2,1.7-0.4
		c0.9-0.4,2-0.4,3.1,0.2c1.8,1,3.2,0.7,4.9-0.5c1.6-1.2,1.7-0.8,5.5,0c7.9,1.6,39.9,2.9,47.9,2.9C197.6,291.2,202,286.9,202.3,280.2
		z"/>
	<path class="st6" d="M120.9,281.9c-0.5,1-0.3,2.2,0.3,2.8c0.5,0.5,1.1,0.6,0.9,1.5c-0.2,0.7-0.2,1.2,0,1.6c-1.7-1-2.6-2.1-2.6-3.2
		C119.5,283.5,120,282.6,120.9,281.9z"/>
	<path class="st6" d="M120,289.4c8,6.1,30.8,7.5,48.3,7.5c17.9,0,30.6-1.6,36.8-5.2c-0.7,2.1-3.4,3.3-7.3,4.4
		c-17.7,4.6-61.2,3.2-73.2-2.2C121.7,292.5,120.5,291.2,120,289.4z"/>
</g>
<g>
	<path class="st6" d="M178.4,371.8c0.8-3.9,5.5-10,15.4-10c9.5,0,14.6,3.2,17.8,4.1c1.4,0.4,1.6-0.8,0.4-1.3c-2.2-1-6.6-3-11.7-4
		c9.2-1.2,13.5,0,24.2,2.9c9.4,2.6,12.6,4.5,16.2,4.1c0.1,1,0.2,1.9,0.3,2.8c-1.9,1.3-6.9,3-9.5,3.5c-0.8,0.1-1.1,0-1.3-0.4
		c-0.5-0.8-1.4-0.8-2.3-0.1c-5.7,4.6-10.4,8.4-20.3,8.4c-11.4,0-22.5-4.7-28.6-7.9C178.3,373.4,178.2,372.7,178.4,371.8z"/>
	<path class="st6" d="M239.6,374.8c-2.6,1.3-5.5,2.7-8.3,3.5c-0.7,0.2-1.6,0.2-1.9-0.1c-0.3-0.3-0.6-0.1-1,0.2
		c-6.9,4.6-11.3,7.6-22.9,7.6c-8.2,0-24.2-2.6-28.1-6.5c-1.3-1.3-1.2-2.4,0.2-3.7c0.2,0.2,0.5,0.3,0.9,0.5c9,4,17.5,7.5,29.2,7.5
		c7.5,0,14.9-2.5,20.8-7.6c0.4-0.4,0.7-0.4,1.1,0c0.3,0.3,1.2,0.3,2,0.2c2.8-0.5,7.1-1.8,9.6-3C240.9,373.9,240.5,374.3,239.6,374.8
		z"/>
	<path class="st6" d="M313,379.6c0.3,0.5,0.3,0.8,0.3,1.3c0,3.7-7.5,8.2-20,8.2c-13.6,0-23.5-5.1-30.9-11.9c-1.1-1-1.5-1.2-3-0.6
		c-0.4,0.2-1.4,0.3-2.3,0.2c-3.6-0.5-9.1-1.4-12.8-2.5c-1-0.3-1.4-0.5-1.5-1.5c2.6,1,12.4,2.4,14.5,2.6c1.3,0.1,2.3,0,3-0.4
		s1-0.5,1.9,0.2c7.9,6.9,17.5,11.7,30.2,11.7C303.8,387,310.6,384.1,313,379.6z"/>
	<path class="st6" d="M311.4,375.6c0,6.6-6.8,9.7-19.1,9.7c-11.3,0-22.3-5-29.7-12.4c-1-1-2-0.8-2.8-0.2c-0.7,0.6-1.2,0.7-2.4,0.6
		c-4.4-0.3-10.4-1.2-14.6-2.7c0-0.7,0-1.4-0.1-2.2c-0.1-0.7,0.2-0.9,1.9-1c6.8-0.5,18.4,1.5,21.5,1.4c-0.3,0.6-0.6,1.1-0.8,1.8
		c-0.4,1.1,0.4,1.6,1.1,0.7c3-4.1,7.6-7.8,19.6-7.8C302.5,363.4,311.4,368.1,311.4,375.6z"/>
</g>
<path class="st1" d="M296.4,325.7c-13.5,4.3-39.6,6.9-54.6,6.9c-13.8,0-40.5-3.6-55.6-10c-0.9-0.4-1.2-1-1.5-2
	c-0.1-0.5-0.2-1-0.3-1.7c14.6,6.8,39.4,11.1,60.9,11.1c16.5,0,39.1-2.7,53.3-7.2c-0.1,0.4-0.3,0.9-0.4,1.3
	C298,324.9,297.5,325.4,296.4,325.7z"/>
<g>
	<path class="st5" d="M134.7,298.3c2.1,0.4,4.4,0.7,6.7,1c0.3,1,0.7,1.9,1.2,2.7C139.2,303.4,136,301,134.7,298.3z"/>
	<path class="st5" d="M143.4,299.5c2,0.2,4.1,0.4,6.1,0.6c0.4,1.1,1,2,1.8,2.7C147.8,304.3,144.4,303,143.4,299.5z"/>
	<path class="st5" d="M155.4,302.8c-1.7-0.1-2.9-1-3.3-2.5c3.3,0.2,6.6,0.4,10,0.4C159.6,301.9,157.6,302.9,155.4,302.8z"/>
	<path class="st5" d="M315.3,301.7c2.6,0.1,5.2,0.1,8,0.1c0.8,0,1.6,0,2.5,0c-0.4,1.5-1.7,2.5-3.4,2.5
		C320,304.3,318,303.1,315.3,301.7z"/>
	<path class="st5" d="M326.4,304.5c0.8-0.7,1.4-1.6,1.9-2.7c2.1,0,4.1-0.1,6.1-0.2C333.3,305,329.9,306.2,326.4,304.5z"/>
	<path class="st5" d="M335.2,304c0.6-0.7,1-1.6,1.3-2.6c2.3-0.1,4.5-0.3,6.6-0.5C341.6,303.5,338.4,305.6,335.2,304z"/>
</g>
<path class="st6" d="M323.3,299.8c-32.3,0-49.4-6.6-49.4-16.6c0-7.5,14.3-15.9,46.4-15.9c28.4,0,48.2,7.6,48.2,16.9
	C368.5,294.8,353.7,299.8,323.3,299.8z M320.5,268.9c-22.8,0-44,5.6-44,13.2c0,8.7,23.6,14,45.6,14c26.3,0,42.4-5.4,42.4-13.1
	C364.5,275.5,349.8,268.9,320.5,268.9z"/>
<g>
	<path class="st6" d="M264.9,231.8c2.6,2.3,3.5,2.7,4.1,3.9c-1.4-0.3-3.1-2-4.6-3.3c-0.8-0.7-3.6-3.3-3.5-3.9
		C262.3,229.1,262.9,230,264.9,231.8z"/>
	<path class="st6" d="M263.2,233c3.2,3.1,5,4.1,5.2,4.8c-1.5-0.3-3.4-1.8-5.9-4.2c-1.9-1.8-3.7-3.8-4.7-5.9
		C259.8,229.3,260.9,230.7,263.2,233z"/>
	<path class="st6" d="M261.2,234c3.9,3.7,5.6,4.5,5.9,6c-1.5-0.5-4.2-3.1-6.5-5.5c-1.7-1.7-5.2-5.1-5.2-6.7
		C256.6,228.5,258,230.9,261.2,234z"/>
	<path class="st6" d="M259.1,235c2.8,3.3,3.7,3.5,4,4.7c-2.6-0.9-8.3-6.7-9.1-10.2C256.1,230.5,256.5,231.8,259.1,235z"/>
	<path class="st6" d="M257.3,236.1c2.7,3.3,4.5,4,4.5,5.4c-1.4-0.7-3.5-2.8-5.4-4.9c-1.1-1.3-3.1-4.2-3.7-5.5
		C254.3,231.8,254.1,232.2,257.3,236.1z"/>
	<path class="st6" d="M254.9,237.3c2,3.2,3.9,4.6,3.9,5.3c-1.4-0.6-2.9-2.1-5-5.1c-1.7-2.4-2.8-4.9-3.2-6.7
		C252,232.5,253.2,234.6,254.9,237.3z"/>
	<path class="st6" d="M251.1,235.9c2.2,3,3.7,4.6,3.9,5.8c-3.2-1.3-7.7-7.7-8-11.1C248.6,231.7,249.2,233.4,251.1,235.9z"/>
	<path class="st6" d="M249.9,239c-2.5-1.9-4.4-4-5.1-6.7C246.6,233.7,248.9,236.7,249.9,239z"/>
	<path class="st6" d="M239.7,231.6c-0.9,3-6.1,7.8-9.9,8.9c0.7-0.8,4.3-3.7,5.1-4.4C235.8,235.4,239,232.5,239.7,231.6z"/>
	<path class="st6" d="M238.6,229.8c-0.6,1.5-2,3-4.6,5.2c-2.7,2.3-5.6,4.3-7.7,4.6c2.1-2.2,4-3.1,7.2-5.7
		C234.5,233,237.6,230.2,238.6,229.8z"/>
	<path class="st6" d="M236.5,228c-0.4,2.2-1.4,2.7-5.1,5.6c-2.6,2-7.3,5.5-8.9,5.4c1.7-2.2,4.8-3.6,7.8-5.9
		C232.9,231.1,235.6,228.3,236.5,228z"/>
	<path class="st6" d="M218.9,237.2c2.3-1.5,6-3.7,8.3-5.1c2.8-1.8,4.7-3.5,6.8-4.8C232.9,230.1,224.2,236.4,218.9,237.2z"/>
	<path class="st6" d="M232.1,224.9c-0.3,1.8-3.2,3.7-7.5,6.2c-2.8,1.6-8.1,4.3-9.8,4.1c0.8-0.8,4.1-2.4,9.2-5.2
		C228.7,227.4,230.3,225,232.1,224.9z"/>
	<path class="st6" d="M229.4,223.4c-0.1,1.7-2.7,3.5-5.9,5.4c-2.7,1.6-7.1,3.6-8.9,3.6c1.8-1,5.6-2.9,8-4.5
		C226.3,225.5,228.1,223.6,229.4,223.4z"/>
	<path class="st6" d="M219.3,226.4c1.2-0.6,5.4-3,6.4-3.3c-1.1,1.3-2.9,2.7-5.9,4.3c-2.9,1.5-4.6,2.3-7.1,2.4
		C214.7,228.1,217.1,227.5,219.3,226.4z"/>
</g>
<path class="st2" d="M300.1,234.2c-5.8,5.4-9.9,15.3-12.6,17c-0.9,0.6-0.3,1.3,0.6,0.9c1.8-0.7,3-2.1,4.6-4.5c3.7,1.6,4.9,3,6.7,4.5
	c-0.9,0.2-1.5,0.9-1.5,1.8c0,0.9,0.7,1.7,1.5,1.8c-1.5,1.4-3.1,2.5-4.9,3.2c0-0.1,0-0.2,0-0.3c0-1-0.8-1.9-1.9-1.9
	c-1,0-1.9,0.8-1.9,1.9c0,0.5,0.2,0.9,0.5,1.3c-2.2,0.4-4.6,0.3-7-0.5c1-0.1,1.8-0.9,1.8-1.9s-0.8-1.9-1.9-1.9c-1,0-1.9,0.8-1.9,1.9
	c0,0.5,0.2,1,0.6,1.3c-1.4-0.6-2.7-1.4-4.1-2.4c1.6-1.1,2.9-2.1,4-2.5c1.3-0.5,1-1.5-0.3-1.2c-4.1,1-6.6,3.7-11,5.1
	c1.7-1.4,2.3-2.9,2.9-4.4c0.1-0.1,0.1-0.2,0.1-0.4c0.4-0.3,0.6-0.8,0.6-1.4c0-0.7-0.4-1.4-1.1-1.7c3.9-2.8,4.7-6.7,6.9-9
	c2.7-2.8,5.6-4.2,8.1-5.5c0.3,0.5,0.9,0.8,1.5,0.8c1,0,1.9-0.8,1.9-1.9c0-0.3-0.1-0.6-0.2-0.9l0.1-0.1
	C293.1,233.7,298.5,234,300.1,234.2z M189.3,262.8c0.1,0.2,0.2,0.4,0.4,0.6c-0.4,0-0.8,0.1-1.2,0.2
	C188.6,263.4,188.9,263.1,189.3,262.8z M196.9,264.1c1,0,1.9-0.8,1.9-1.9c0-1-0.8-1.9-1.9-1.9c-1,0-1.9,0.8-1.9,1.9
	C195.1,263.3,195.9,264.1,196.9,264.1z M202.2,266c1,0,1.9-0.8,1.9-1.9c0-1-0.8-1.9-1.9-1.9c-1,0-1.9,0.8-1.9,1.9
	C200.4,265.2,201.2,266,202.2,266z M211.5,260.7c1,0,1.9-0.8,1.9-1.9c0-1-0.8-1.9-1.9-1.9s-1.9,0.8-1.9,1.9
	C209.6,259.9,210.4,260.7,211.5,260.7z M210.5,271.2c1,0,1.9-0.8,1.9-1.9c0-1-0.8-1.9-1.9-1.9c-1,0-1.9,0.8-1.9,1.9
	C208.7,270.4,209.5,271.2,210.5,271.2z M215,268c1,0,1.9-0.8,1.9-1.9c0-1-0.8-1.9-1.9-1.9c-1,0-1.9,0.8-1.9,1.9
	C213.2,267.1,214,268,215,268z M219,260.8c1,0,1.9-0.8,1.9-1.9c0-1-0.8-1.9-1.9-1.9c-1,0-1.9,0.8-1.9,1.9S218,260.8,219,260.8z
	 M223.9,269.6c1,0,1.9-0.8,1.9-1.9c0-1-0.8-1.9-1.9-1.9c-1,0-1.9,0.8-1.9,1.9C222.1,268.7,222.9,269.6,223.9,269.6z M218.8,273.4
	c1,0,1.9-0.8,1.9-1.9c0-1-0.8-1.9-1.9-1.9c-1,0-1.9,0.8-1.9,1.9C217,272.5,217.8,273.4,218.8,273.4z M230.1,277.1
	c1,0,1.9-0.8,1.9-1.9c0-1-0.8-1.9-1.9-1.9c-1,0-1.9,0.8-1.9,1.9C228.3,276.3,229.1,277.1,230.1,277.1z M232.6,272.3
	c1,0,1.9-0.8,1.9-1.9c0-1-0.8-1.9-1.9-1.9c-1,0-1.9,0.8-1.9,1.9C230.7,271.5,231.6,272.3,232.6,272.3z M239.9,272.4
	c1,0,1.9-0.8,1.9-1.9c0-1-0.8-1.9-1.9-1.9c-1,0-1.9,0.8-1.9,1.9C238,271.5,238.9,272.4,239.9,272.4z M240,274.2
	c-1,0-1.9,0.8-1.9,1.9c0,1,0.8,1.9,1.9,1.9c1,0,1.9-0.8,1.9-1.9S241,274.2,240,274.2z M244.5,269.9c1,0,1.9-0.8,1.9-1.9
	c0-1-0.8-1.9-1.9-1.9s-1.9,0.8-1.9,1.9C242.7,269.1,243.5,269.9,244.5,269.9z M250.5,269.8c1,0,1.9-0.8,1.9-1.9c0-1-0.8-1.9-1.9-1.9
	c-1,0-1.9,0.8-1.9,1.9C248.7,268.9,249.5,269.8,250.5,269.8z M255,267c1,0,1.9-0.8,1.9-1.9c0-1-0.8-1.9-1.9-1.9
	c-1,0-1.9,0.8-1.9,1.9C253.2,266.1,254,267,255,267z M262.3,260.9c1,0,1.9-0.8,1.9-1.9c0-1-0.8-1.9-1.9-1.9c-1,0-1.9,0.8-1.9,1.9
	S261.2,260.9,262.3,260.9z M279.2,247.1c-1,0-1.9,0.8-1.9,1.9c0,1,0.8,1.9,1.9,1.9c1,0,1.9-0.8,1.9-1.9
	C281.1,247.9,280.3,247.1,279.2,247.1z M285,247.5c-1,0-1.9,0.8-1.9,1.9c0,1,0.8,1.9,1.9,1.9c1,0,1.9-0.8,1.9-1.9
	C286.9,248.4,286.1,247.5,285,247.5z M284.8,244.1c0-1-0.8-1.9-1.9-1.9c-1,0-1.9,0.8-1.9,1.9c0,1,0.8,1.9,1.9,1.9
	C284,245.9,284.8,245.1,284.8,244.1z M288.9,243.4c-1,0-1.9,0.8-1.9,1.9c0,1,0.8,1.9,1.9,1.9c1,0,1.9-0.8,1.9-1.9
	C290.8,244.3,289.9,243.4,288.9,243.4z M289.3,238.8c0-1-0.8-1.9-1.9-1.9c-1,0-1.9,0.8-1.9,1.9c0,1,0.8,1.9,1.9,1.9
	S289.3,239.9,289.3,238.8z M291.4,239.3c0,1,0.8,1.9,1.9,1.9c1,0,1.9-0.8,1.9-1.9c0-1-0.8-1.9-1.9-1.9
	C292.2,237.4,291.4,238.2,291.4,239.3z M292,255.3c1,0,1.9-0.8,1.9-1.9c0-1-0.8-1.9-1.9-1.9c-1,0-1.9,0.8-1.9,1.9
	C290.2,254.4,291,255.3,292,255.3z M195,257.5c2-1.1,3.5-1.6,5.2-0.5c2.5,1.7,4.1,4.9,5.7,6c0.2,0.9,0.9,1.5,1.8,1.5
	c1,0,1.9-0.8,1.9-1.9s-0.8-1.9-1.9-1.9c-0.3,0-0.6,0.1-0.9,0.2c-1.5-1.5-7.5-7.3-5-10.3c0.6-0.8,1.6-0.9,2-0.4
	c0.8,0.8,0.3,1.5-0.2,2.2c-0.8,1,0.5,1.9,1.5,1.4c0.7-0.4,1.3-2.2,0.8-3.3c-0.8-2-1.6-3.8-0.7-5.5c1.6,1.6,3.4,3.3,5.7,4.9
	c-1,0-1.8,0.9-1.8,1.9s0.8,1.9,1.9,1.9c1,0,1.9-0.8,1.9-1.9c0-0.2,0-0.4-0.1-0.5c2.2,1.5,4.8,3.2,7.8,5c1.9,1.1,3.5,2.1,5,3.1
	c-1,0.1-1.7,0.9-1.7,1.9s0.8,1.9,1.9,1.9c1,0,1.9-0.8,1.9-1.9c0-0.3-0.1-0.5-0.2-0.7c1,0.6,1.9,1.2,2.8,1.7
	c-0.7,0.3-1.2,0.9-1.2,1.7c0,1,0.8,1.9,1.9,1.9c1,0,1.9-0.8,1.9-1.9c0-0.1,0-0.2,0-0.3c2.4,1.3,4.3,1.9,6.1,1.9
	c3.5,0,7-1.1,10.5-2.6c0.3,0.7,0.9,1.2,1.7,1.2c1,0,1.9-0.8,1.9-1.9c0-0.4-0.1-0.7-0.3-1c0.8-0.4,1.5-0.8,2.2-1.2c0,0.1,0,0.2,0,0.3
	c0,1,0.8,1.9,1.9,1.9c1,0,1.9-0.8,1.9-1.9c0-0.8-0.5-1.4-1.1-1.7c1.9-1,3.7-2.1,5.4-3c3.5-1.8,6.1-2.7,8.4-3.8c0,0.1,0,0.1,0,0.2
	c0,0.9,0.6,1.6,1.5,1.8c-1,1.7-2.5,3-4.2,4.3c0-0.1,0-0.2,0-0.3c0-1-0.8-1.9-1.9-1.9c-1,0-1.9,0.8-1.9,1.9c0,0.9,0.7,1.7,1.5,1.8
	c-1.6,1.1-3.3,2.2-4.6,3.5c-3.5,3.4-7.5,7.5-12,10.9c0-0.1,0-0.2,0-0.4c0-1-0.8-1.9-1.9-1.9c-1,0-1.9,0.8-1.9,1.9
	c0,0.9,0.7,1.7,1.6,1.8c-4.2,2.8-8.8,4.8-13.9,5.1c0.1-0.3,0.2-0.6,0.2-0.9c0-1-0.8-1.9-1.9-1.9c-1,0-1.9,0.8-1.9,1.9
	c0,0.3,0.1,0.6,0.2,0.8c-2.8-0.2-5.4-0.6-7.9-1.3c1,0,1.8-0.8,1.8-1.9c0-1-0.8-1.9-1.9-1.9c-1,0-1.9,0.8-1.9,1.9
	c0,0.7,0.3,1.2,0.8,1.6c-8.7-2.6-16.3-7.8-24.4-13c-1.8-1.1-3.5-2-5.3-2.4c0.5-0.3,0.8-0.9,0.8-1.5c0-0.7-0.4-1.4-1-1.7
	C193.2,259,194.6,257.7,195,257.5z"/>
<path class="st5" d="M243,232.9c0.1,0.4,0.6,1.3,0.7,1.7c-0.5-0.1-1.2,0-1.7,0.1C242.5,234,242.7,233.5,243,232.9z M255.7,252.8
	c-8.6,11.5-23.4,10.7-29.7-2.2c-0.7-1.5,0.3-1.8,1.1-0.5c7.5,11.2,18.7,10.6,27.4,1.8C255.8,250.7,256.6,251.6,255.7,252.8z
	 M247,204.1c-0.8-0.9-0.4-1.8,0.2-2.5c0.2-1.7,1.3-2.4,3.1-3.5c0.6-0.4,2.2-1.5,2.5-2.2c0.5-0.9,1.6-0.4,1,0.5
	c-0.6,1.1-1.7,1.8-3.1,2.7c-1.4,0.9-2,1.7-2.3,2.5c-0.2,0.5-0.1,0.9,0.3,1.3c0.8,0.6,1.2,0.5,1.8,0c0.4-0.4,1.1-1.1,1.6-1.4
	c0.9-0.6,1.7,0.2,1.1,1c-1.4,1.9-2.3,3.3-1.8,4.4c0.6,1.2,2.1,1.5,4,1.3c1.3-0.2,2.1,0.8,1.1,1.3c1.9,0.2,4.2,0.1,5.6-0.8
	c0.9-0.5,1.4,0.5,0.5,1c-3.8,2.2-7.7,0.4-9.7,0.7c0.6,0.7,2,1.9,1.3,2.5s-2-0.5-2.8-1.4c-1.2-1.4-1.6-2.3-2.2-4
	C248.9,207,247.5,204.7,247,204.1z M253.2,204.7c1.9-1.3,4.5-1.4,7.1-1c0.7,0.1,1.7-0.1,2.2-0.5s1.5-1.2,2-1.7
	c1.3-1.1,1.8,0.1,0.6,1.6c1.2-0.4,2.3-0.7,2.8-0.7c1-0.1,1.1,0.6,0.4,1c-0.4,0.2-0.9,0.5-1.2,0.7c0.8-0.2,1.7-0.3,2.1-0.2
	c0.9,0.1,0.9,0.8,0.2,1.1c-0.4,0.2-2.1,0.9-2.5,1.1c-0.6,0.3-0.2,0.7,0.5,0.6c0.5,0,1.9-0.5,2.3-0.6c1-0.2,1.5,0.6,0.7,1.2
	c-1,0.7-1.5,0.2-2.4,1.4c-0.3,0.4-1.7,1.8-2.4,2c-0.7,0.2-0.8-0.5-0.4-0.8s1.4-1.3,1.6-1.8c-3.2,0.3-6.6-2.6-13-1.4
	C252.6,207,252,205.5,253.2,204.7z M246.8,224c1.3-0.6,2.6-1.7,2.8-2.9c0.1-0.5,0.5-0.7,0.9-0.5c0.9,0.5,2.2,0.1,2.7-0.7
	c0.3-0.4,1-0.1,0.6,0.4c-1.2,1.8-3.5,3.5-6.7,4.5C246.3,225.1,246,224.4,246.8,224z M206.1,227.7c7,0.5,15.5-3,20.5-6.4
	c-0.5-1.2-0.2-2.9,1.4-5c2.2-2.8,4-3.8,5.9-5.7c-0.9,0.1-2.3,0.2-2.8,0.2c-1,0-1.3-1-0.3-1.7c0.4-0.3,1-0.6,1.4-0.9
	c-2.2,0.2-7.2-0.2-8.2-0.9c-0.8-0.6-0.3-1.4,0.6-1.1c2.3,0.8,7.3,0.5,9.1-0.6c-1-0.5-4.5-1.4-6.6-1.4c-2.4,0-3.9,0.6-6.6,1
	c-0.9,0.1-1.7,0-2.1-0.5c-0.4-0.6-0.3-1.3,0.1-1.9c0.7-0.9,2.4-2,3.6-2.5c0.9-0.4,1.1-0.9,1.7-1.5c1.6-1.8,5.7-4.1,7.3-4.2
	c0.8-0.1,1.2,0.6,0.3,1c-1.9,0.8-3.9,2-5.4,3.5c1.2,1,1.3,1.7,1.2,3.1c2.4-0.5,7.3,1.1,8.9,2.4c0.3-0.5,0.8-1.5,1.1-1.8
	c-0.8-0.8-2.1-2-3-2.8c-0.7-0.7-0.4-2,1-1.5c-0.2-0.3-0.5-0.9-0.8-1.4c-0.5-0.8,0.2-1.6,1.1-0.8c0.5,0.5,3.1,3.6,3.5,4
	c1.8-0.6,4.3-1.3,5.8-0.6c1.2,0.5,1.3,2.2,0,2.7s-3.6,0-5.2,1.3c-1,0.8-2.1,4-2.5,5.4c-0.3,1-0.8,1.3-1.5,1.9
	c-1.5,1.4-5.3,4.4-6.5,6.6c-1.3,2.5-0.4,3.3,1.5,3.6c4.7,0.8,4.8,2,6.9,3.9c3.6,3.3,8.9,2.6,11.7,0.4c1.5-1.2,2.8-1.6,4.6-1.6
	c4.6,0,4.4-4.4,2.6-6.9c-1-1.3,0.2-2.5,1.5-1.3c1.7,1.6,2.6,5.3,1.3,7.8c3.6,3.4,9.4,9.5,14.5,11.6c1.9,0.8,2.9,1.1,4.3,0.7
	c1.3-0.3,2,0.8,0.6,2.3c-2.1,2.3-5.2,3.4-8.3,3.4c-1.5,2.5-5.1,3.4-8.8,3.1c-0.2,1.7-2.1,1.1-4.2,0c-6.5,8.9-21.6,8.3-29.6,0.2
	c-3.2,0.7-5.3-0.3-2.9-2c-4.7-0.1-8.4-0.9-8.4-3c-0.2,0-0.7-0.3-0.7-0.6c-2,0-4.8-1.1-5.9-3.3c-0.7-1.3-0.9-1.8-2.4-3
	c-0.7-0.6-2.4-2.8-2.6-3.7C204.6,228.4,205,227.6,206.1,227.7z M254.6,187.7l-2.5-1.1c-0.2,0.5-0.9,0.8-2,0.5
	c-5-1.3-8.3-1.6-13.6,1.3c0.7,0.8,1.2,1.4,1.4,1.9c0.6,1.1,0.5,1.9,0,2.3c-0.4,0.4-1.1,1.1-1.6,1.4c-0.9,0.5-1.4,0.6-2.7-0.1
	c-2.5-1.4-7.8-3.2-10.9-1.5c-2.4,1.4-8.2,7.2-9.8,9.7c-1.6,2.4-1.6,5.9-3.8,9.6c-0.6,1.1-3.9,4.6-4.7,5.2c-1.8,1.5-3.1,0.6-2.8-3.6
	c-0.9,1.1-2.9,4.1-3.4,4.7c-1.1,1.2-2.3,0.3-1.9-0.9c0.3-0.9,0.6-2.4-0.1-2.7c-0.7-0.3-1.4,0.5-1.8,1.9c-1,3.9,1.5,7.2,4.1,9
	c0.2-0.9,0.8-2.3,1.3-3c0.4-0.7,1-0.8,1.4-0.6s0.1,1.3,0.1,1.8c0.5-0.8,1.8-1.9,2.3-2.4s1-0.6,1.5-0.2c0.4,0.4,0.4,0.7-0.1,1.3
	c-1.6,2.1-3,6.3-3,9.8c0,8.8,10.8,16.6,19.9,22c7.9,4.7,14.1,8.8,17.9,8.8c8.8,0,14.2-5.5,29.9-12.8c2.4-1.1,3.8-1.8,5.2-4.1
	c4-6.5,5.9-9.4,6.4-16c0.1-1.5,1.4-2.6,2.2-0.3c0.3,0.9,0.5,3.8,0.4,4.7c2.5-1.5,4.3-5.5,4.3-8.3c0-3-1.6-5-3.4-5
	c-1.2,0-1.2,0.6-2.7,3.8c-0.4,0.8-0.8,0.9-1.5,0.7s-0.8-0.8-1-1.5c-0.5-1.7-2.6-5.7-4.1-7c-0.6-0.5-0.6-1.4-0.2-2.5
	c1.3-3.8,2.1-5.9-0.5-11.6c-2.1-4.6-4.1-6.3-9.8-7.9c-3.2-0.9-7.9-1.3-10.4-1.3c-1,0-1.6-0.2-2.1-0.8c-0.6-0.8-0.6-1.3,0.1-2.7
	C252.9,189.8,253.7,188.7,254.6,187.7z"/>
<g>
	<path class="st1" d="M250,406.7c-86.1,0-156.2-70.3-156.2-156.7S163.9,93.3,250,93.3S406.2,163.6,406.2,250S336.1,406.7,250,406.7z
		 M250,95.8C165.3,95.8,96.3,165,96.3,250S165.2,404.2,250,404.2c84.7,0,153.7-69.2,153.7-154.2S334.7,95.8,250,95.8z"/>
</g>
</svg>
